<svg width="27" height="36" viewBox="0 0 27 36" fill="none" xmlns="http://www.w3.org/2000/svg">
<path id="coolicon" d="M13.4999 36C11.064 33.8457 8.80617 31.484 6.74997 28.9395C3.66427 25.1182 1.7042e-06 19.4274 1.7042e-06 14.0045C-0.00273331 8.3408 3.28675 3.23354 8.33345 1.066C13.3801 -1.10154 19.1893 0.0978855 23.0502 4.10458C25.589 6.72525 27.0113 10.2901 26.9999 14.0045C26.9999 19.4274 23.3356 25.1182 20.2499 28.9395C18.1937 31.484 15.9358 33.8457 13.4999 36ZM13.4999 8.00577C11.4329 8.00577 9.5229 9.14913 8.48938 11.0052C7.45587 12.8612 7.45587 15.1479 8.48938 17.0039C9.5229 18.8599 11.4329 20.0033 13.4999 20.0033C16.6953 20.0033 19.2856 17.3176 19.2856 14.0045C19.2856 10.6915 16.6953 8.00577 13.4999 8.00577Z" fill="#E8505B" fill-opacity="0.65"/>
</svg>
