<svg width="34" height="34" viewBox="0 0 34 34" fill="none" xmlns="http://www.w3.org/2000/svg">
<path id="coolicon" d="M31.8697 34C13.74 34.0257 -0.0193749 20.1014 2.04795e-05 2.13033C2.04795e-05 0.956728 0.951416 0 2.12502 0H7.73366C8.78675 0 9.68135 0.773775 9.83599 1.81545C10.2066 4.31204 10.9335 6.74256 11.9945 9.03274L12.2129 9.50407C12.5165 10.1594 12.3107 10.9381 11.7229 11.3579C9.98601 12.5983 9.32221 15.095 10.6754 17.0433C12.3734 19.488 14.5139 21.628 16.9581 23.3253C18.9062 24.6781 21.4026 24.0144 22.643 22.2777C23.063 21.6897 23.8421 21.4837 24.4978 21.7875L24.967 22.0048C27.2573 23.0658 29.6881 23.7927 32.1849 24.1633C33.2266 24.3179 34 25.2124 34 26.2656V31.875C34 33.0486 33.0463 34 31.8727 34L31.8697 34Z" fill="#E8505B" fill-opacity="0.65"/>
</svg>
