<svg width="49" height="24" viewBox="0 0 49 24" fill="none" xmlns="http://www.w3.org/2000/svg">
<path id="vk" fill-rule="evenodd" clip-rule="evenodd" d="M8.90923 0.10576C6.04135 0.10088 3.1726 0.0784789 0.304378 0.0784789C-0.695987 0.0125586 1.07588 0.880725 1.23953 1.41793C6.85122 13.7386 14.2576 22.5037 20.3378 23.5853C28.1421 24.0955 28.0687 24.5725 28.4434 20.08C28.7601 17.8992 30.7808 17.9132 32.0809 18.4272C34.1164 20.1251 36.1344 21.2553 37.6147 22.9738C38.2794 23.7454 38.4503 24.0345 40.1098 23.9968C44.4715 23.8977 49.4382 23.9975 48.6886 23.9496C50.6554 21.9504 42.7904 17.2104 39.5128 12.9385C43.1257 8.97925 46.4825 5.44859 48.5647 1.36361C48.9873 0.621923 48.9868 0.0789604 48.7884 0C44.9624 0 43.4845 0.000238283 39.8822 0.000238283C38.714 0.000238283 38.569 -0.0227219 38.1754 0.972244C36.1963 5.97299 34.802 8.46869 30.7324 11.608C29.6366 11.7762 28.5468 11.6162 27.8843 9.99253C27.8843 7.0722 27.8843 4.15162 27.8843 1.23129C27.8843 -0.0338409 27.7734 0.0190392 26.5005 0.0190392C23.2647 0.0190392 21.5713 0.0190392 18.0961 0.0190392C17.3966 0.00143907 18.8842 0.409921 19.3394 2.45265C19.6972 5.30499 19.7479 6.24195 19.3728 9.49277C19.2099 11.2678 17.7249 11.5677 16.3967 10.6941C13.439 8.26516 11.8237 4.31898 10.4611 1.26049C9.92677 0.0611189 10.243 0.10768 8.90923 0.10576Z" fill="#E8505B" fill-opacity="0.65"/>
</svg>
