<svg width="34" height="34" viewBox="0 0 34 34" fill="none" xmlns="http://www.w3.org/2000/svg">
<path id="wa" fill-rule="evenodd" clip-rule="evenodd" d="M0.630069 32.9091L2.9642 26.8258C-8.29722 5.04799 15.32 -6.38555 27.1909 3.70942C42.3763 16.2915 30.6011 42.3743 7.28454 31.3426C7.2303 31.3169 6.91221 31.1398 6.95451 31.1261C9.31243 30.3657 19.9292 27.3694 21.9316 26.5645C22.0303 26.525 22.9321 26.5089 23.526 26.2664C25.5744 25.3992 26.3917 24.0408 26.9637 22.3347C27.2604 21.4496 26.9194 21.405 26.1246 21.0564L22.8028 19.5992C21.9997 19.2471 21.5326 18.8579 21.0004 19.5162L19.9642 21.0806C19.6342 21.5101 19.0811 21.9122 18.3642 21.6617C15.2932 20.5889 13.9509 19.4386 12.0801 16.5587C11.7467 16.0456 11.7584 15.1537 12.1552 14.7426L13.4381 13.4965C13.7861 13.1997 13.771 12.7043 13.6028 12.3029L12.0641 8.6332C11.861 7.83313 11.2116 7.41539 10.4842 7.59482C7.27822 8.38613 5.81844 10.9124 6.7003 14.7207C8.91274 20.3454 13.5147 24.9156 21.9316 26.5645C21.9445 26.567 21.9355 26.5635 21.9197 26.5696C21.8911 26.5811 21.8227 26.61 21.7149 26.6512C19.6427 27.4417 3.09058 32.2568 0.630069 32.9091Z" fill="#E8505B" fill-opacity="0.65"/>
</svg>
