<?xml version="1.0" standalone="no"?>
  <!DOCTYPE svg PUBLIC "-//W3C//DTD SVG 1.1//EN" "http://www.w3.org/Graphics/SVG/1.1/DTD/svg11.dtd" >
  <svg>
  <metadata>
  Created by font-carrier
  </metadata>
  <defs>
  <font id="a_LCDNovaOtl" horiz-adv-x="65526" vert-adv-y="65526" >
    <font-face
      
      font-family="a_LCDNovaOtl"
      
      font-weight="400"
      
      font-stretch="normal"
      
      units-per-em="1000"
      
      ascent="762"
      
      descent="-10"
      
    />
      <missing-glyph />

      

      
      <glyph glyph-name="uni21" unicode="&#x21;" d="M77 381L35 425L35 718L77 760L119 718L119 425L77 381M35 325L77 369L119 325L119 189L79 149L77 152L75 149L35 189L35 325M71 140L77 134L75 131L66 140L75 149L77 147L71 140M79 131L77 134L83 140L77 147L79 149L88 140L79 131M77 129L79 131L119 91L119 32L77-10L35 32L35 91L75 131L77 129M47 430L77 399L107 430L107 713L77 743L47 713L47 430M77 351L47 320L47 194L77 164L107 194L107 320L77 351M47 86L47 37L77 7L107 37L107 86L77 117L47 86Z"  horiz-adv-x="154" vert-adv-y="1000"  />

      
      <glyph glyph-name="uni22" unicode="&#x22;" d="M35 707L78 749L121 707L121 543L78 501L35 543L35 707M206 707L250 749L292 707L292 543L250 501L206 543L206 707M78 731L47 701L47 549L78 519L108 549L108 701L78 731M250 731L219 701L219 549L250 519L280 549L280 701L250 731Z"  horiz-adv-x="327" vert-adv-y="1000"  />

      
      <glyph glyph-name="uni23" unicode="&#x23;" d="M203 718L245 760L289 718L289 555L245 511L203 555L203 718M374 718L418 760L460 718L460 555L418 511L374 555L374 718M374 440L418 482L460 440L460 310L418 268L374 310L374 440M203 440L245 482L289 440L289 310L245 268L203 310L203 440M374 195L418 239L460 195L460 32L418-10L374 32L374 195M203 195L245 239L289 195L289 32L245-10L203 32L203 195M432 497L475 540L630 540L673 497L630 455L475 455L432 497M432 253L475 295L630 295L673 253L630 210L475 210L432 253M-10 253L33 295L188 295L231 253L188 210L33 210L-10 253M-10 497L33 540L188 540L231 497L188 455L33 455L-10 497M260 497L303 540L360 540L403 497L360 455L303 455L260 497M260 253L303 295L360 295L403 253L360 210L303 210L260 253M245 743L215 713L215 560L245 529L276 560L276 713L245 743M418 743L387 713L387 560L418 529L448 560L448 713L418 743M418 465L387 435L387 315L418 285L448 315L448 435L418 465M245 465L215 435L215 315L245 285L276 315L276 435L245 465M418 221L387 190L387 37L418 7L448 37L448 190L418 221M245 221L215 190L215 37L245 7L276 37L276 190L245 221M480 528L450 497L480 467L624 467L655 497L624 528L480 528M480 283L450 253L480 222L624 222L655 253L624 283L480 283M39 283L8 253L39 222L183 222L213 253L183 283L39 283M39 528L8 497L39 467L183 467L213 497L183 528L39 528M308 528L277 497L308 467L355 467L386 497L355 528L308 528M308 283L277 253L308 222L355 222L386 253L355 283L308 283Z"  horiz-adv-x="663" vert-adv-y="1000"  />

      
      <glyph glyph-name="uni24" unicode="&#x24;" d="M135 417L380 417L423 375L380 333L135 333L92 375L135 417M35 662L77 705L121 662L121 433L77 389L35 433L35 662M394 317L438 361L480 317L480 88L438 45L394 88L394 317M35 88L35 158L77 200L121 158L121 88L77 45L35 88M394 592L394 662L438 705L480 662L480 592L438 550L394 592M272 30L316 73L380 73L423 30L380-12L316-12L272 30M92 30L135 73L200 73L244 30L200-12L135-12L92 30M300-89L258-131L216-89L216-27L258 15L300-27L300-89M272 720L316 762L380 762L423 720L380 677L316 677L272 720M92 720L135 762L200 762L244 720L200 677L135 677L92 720M300 839L300 777L258 735L216 777L216 839L258 881L300 839M375 405L140 405L109 375L140 345L375 345L406 375L375 405M77 687L47 657L47 438L77 407L108 438L108 657L77 687M438 343L407 312L407 93L438 63L468 93L468 312L438 343M47 153L47 93L77 63L108 93L108 153L77 183L47 153M407 657L407 597L438 567L468 597L468 657L438 687L407 657M321 61L290 30L321 0L375 0L406 30L375 61L321 61M140 61L109 30L140 0L195 0L226 30L195 61L140 61M258-114L288-84L288-32L258-2L228-32L228-84L258-114M321 750L290 720L321 689L375 689L406 720L375 750L321 750M140 750L109 720L140 689L195 689L226 720L195 750L140 750M288 782L288 834L258 864L228 834L228 782L258 752L288 782Z"  horiz-adv-x="515" vert-adv-y="1000"  />

      
      <glyph glyph-name="uni25" unicode="&#x25;" d="M133 417L303 417L345 375L303 333L135 333L92 375L133 417M35 662L78 705L121 662L121 433L78 389L35 431L35 662M135 762L303 762L345 720L303 677L135 677L92 720L135 762M317 662L360 705L403 662L403 433L360 389L317 431L317 662M215 92L153 92L153 154L660 660L721 660L721 598L215 92M567 73L737 73L780 30L737-12L569-12L527 30L567 73M469 317L512 361L555 317L555 88L512 45L469 86L469 317M569 417L737 417L780 375L737 333L569 333L527 375L569 417M751 317L794 361L837 317L837 88L794 45L751 86L751 317M298 405L138 405L110 375L141 345L298 345L328 375L298 405M78 687L48 657L48 436L78 407L109 438L109 657L78 687M298 750L141 750L110 720L141 689L298 689L328 720L298 750M360 687L330 657L330 436L360 407L391 438L391 657L360 687M165 104L210 104L709 603L709 648L665 648L165 149L165 104M731 61L572 61L544 30L574 0L731 0L762 30L731 61M512 343L481 312L481 91L512 63L542 93L542 312L512 343M731 405L574 405L544 375L574 345L731 345L762 375L731 405M794 343L763 312L763 91L794 63L824 93L824 312L794 343Z"  horiz-adv-x="872" vert-adv-y="1000"  />

      
      <glyph glyph-name="uni26" unicode="&#x26;" d="M134-12L92 30L134 73L380 73L422 30L380-12L134-12M134 333L92 375L134 417L380 417L422 375L380 333L134 333M34 433L34 662L77 705L120 662L120 433L77 389L34 433M134 677L92 720L134 762L323 762L367 720L323 677L134 677M395 88L395 317L437 361L480 317L480 88L437 45L395 88M34 317L77 361L120 317L120 88L77 45L34 88L34 317M480 433L437 389L395 433L395 519L437 562L480 519L480 433M451 375L495 417L552 417L595 375L552 333L495 333L451 375M109 30L139 0L375 0L405 30L375 61L139 61L109 30M109 375L139 345L375 345L405 375L375 405L139 405L109 375M46 657L46 438L77 407L107 438L107 657L77 687L46 657M109 720L139 689L318 689L349 720L318 750L139 750L109 720M407 312L407 93L437 63L468 93L468 312L437 343L407 312M77 343L46 312L46 93L77 63L107 93L107 312L77 343M437 407L468 438L468 513L437 544L407 513L407 438L437 407M500 405L469 375L500 345L546 345L577 375L546 405L500 405Z"  horiz-adv-x="585" vert-adv-y="1000"  />

      
      <glyph glyph-name="uni27" unicode="&#x27;" d="M35 707L78 749L119 707L119 543L78 501L35 543L35 707M78 731L47 701L47 549L78 519L107 549L107 701L78 731Z"  horiz-adv-x="154" vert-adv-y="1000"  />

      
      <glyph glyph-name="uni28" unicode="&#x28;" d="M201 677L135 677L93 720L135 762L201 762L243 720L201 677M71 375L77 369L75 366L66 375L75 384L77 381L71 375M79 366L77 369L83 375L77 381L79 384L88 375L79 366M77 364L79 366L120 325L120 88L77 45L35 88L35 325L75 366L77 364M35 425L35 662L77 705L120 662L120 425L79 384L77 386L75 384L35 425M93 30L135 73L201 73L243 30L201-12L135-12L93 30M140 689L196 689L226 720L196 750L140 750L110 720L140 689M47 320L47 93L77 63L108 93L108 320L77 351L47 320M47 657L47 430L77 399L108 430L108 657L77 687L47 657M140 61L110 30L140 0L196 0L226 30L196 61L140 61Z"  horiz-adv-x="281" vert-adv-y="1000"  />

      
      <glyph glyph-name="uni29" unicode="&#x29;" d="M146 677L80 677L38 720L80 762L146 762L188 720L146 677M246 425L206 384L204 386L202 384L161 425L161 662L204 705L246 662L246 425M198 375L204 369L202 366L193 375L202 384L204 381L198 375M206 366L204 369L210 375L204 381L206 384L215 375L206 366M204 364L206 366L246 325L246 88L204 45L161 88L161 325L202 366L204 364M146 73L188 30L146-12L80-12L38 30L80 73L146 73M85 689L141 689L171 720L141 750L85 750L55 720L85 689M204 399L234 430L234 657L204 687L173 657L173 430L204 399M173 320L173 93L204 63L234 93L234 320L204 351L173 320M171 30L141 61L85 61L55 30L85 0L141 0L171 30Z"  horiz-adv-x="281" vert-adv-y="1000"  />

      
      <glyph glyph-name="uni2a" unicode="&#x2a;" d="M288 385L228 385L228 445L342 559L402 559L402 499L288 385M208 385L148 385L34 499L34 559L94 559L208 445L208 385M148 365L208 365L208 305L94 191L34 191L34 251L148 365M228 365L288 365L402 251L402 191L342 191L228 305L228 365M218 147L178 187L218 227L258 187L218 147M406 335L366 375L406 415L446 375L406 335M218 523L178 563L218 603L258 563L218 523M30 335L-10 375L30 415L70 375L30 335M241 398L283 398L389 504L389 546L347 546L241 440L241 398M153 398L195 398L195 440L89 546L47 546L47 504L153 398M195 352L153 352L47 246L47 204L89 204L195 310L195 352M283 352L241 352L241 310L347 204L389 204L389 246L283 352M195 187L218 164L241 187L218 210L195 187M383 375L406 352L429 375L406 398L383 375M195 563L218 540L241 563L218 586L195 563M7 375L30 352L53 375L30 398L7 375Z"  horiz-adv-x="436" vert-adv-y="1000"  />

      
      <glyph glyph-name="uni2b" unicode="&#x2b;" d="M292 433L250 389L208 433L208 592L250 635L292 592L292 433M236 375L192 333L33 333L-10 375L33 417L192 417L236 375M208 317L250 361L292 317L292 158L250 115L208 158L208 317M264 375L308 417L467 417L510 375L467 333L308 333L264 375M250 407L280 438L280 587L250 618L220 587L220 438L250 407M187 345L218 375L187 405L38 405L7 375L38 345L187 345M250 343L220 312L220 163L250 132L280 163L280 312L250 343M313 405L282 375L313 345L462 345L493 375L462 405L313 405Z"  horiz-adv-x="500" vert-adv-y="1000"  />

      
      <glyph glyph-name="uni2c" unicode="&#x2c;" d="M119 42L35-44L35 106L78 148L119 106L119 42M47-14L107 47L107 101L78 131L47 101L47-14Z"  horiz-adv-x="154" vert-adv-y="1000"  />

      
      <glyph glyph-name="uni2d" unicode="&#x2d;" d="M45 417L290 417L333 375L290 333L45 333L2 375L45 417M285 405L50 405L19 375L50 345L285 345L316 375L285 405Z"  horiz-adv-x="335" vert-adv-y="1000"  />

      
      <glyph glyph-name="uni2e" unicode="&#x2e;" d="M77-37L35 6L35 64L77 107L119 64L119 6L77-37M47 11L77-20L107 11L107 59L77 90L47 59L47 11Z"  horiz-adv-x="154" vert-adv-y="1000"  />

      
      <glyph glyph-name="uni2f" unicode="&#x2f;" d="M277 742L329 761L353 720L77 8L24-11L0 30L277 742M324 746L287 732L14 31L29 4L68 18L339 719L324 746Z"  horiz-adv-x="353" vert-adv-y="1000"  />

      
      <glyph glyph-name="uni30" unicode="&#x30;" d="M135 762L380 762L423 720L380 677L135 677L92 720L135 762M135 73L380 73L423 30L380-12L134-12L92 30L135 73M438 364L440 366L480 325L480 88L438 45L394 88L394 325L435 366L438 364M432 375L438 369L435 366L426 375L435 383L438 381L432 375M480 425L440 384L438 386L435 383L394 421L394 662L438 705L480 662L480 425M440 366L438 369L444 375L438 381L440 384L449 375L440 366M77 364L80 366L121 325L121 88L77 45L35 88L35 325L75 366L77 364M71 375L77 369L75 366L66 375L75 384L77 381L71 375M121 425L80 384L77 386L75 384L35 425L35 662L77 705L121 662L121 425M80 366L77 369L83 375L77 381L80 384L89 375L80 366M316 656L374 656L374 586L199 94L141 94L141 164L316 656M375 750L140 750L109 720L140 689L375 689L406 720L375 750M375 61L140 61L109 30L139 0L375 0L406 30L375 61M438 351L407 320L407 93L438 63L468 93L468 320L438 351M438 399L468 430L468 657L438 687L407 657L407 427L438 399M77 351L47 320L47 93L77 63L108 93L108 320L77 351M77 399L108 430L108 657L77 687L47 657L47 430L77 399M361 644L324 644L154 162L154 106L191 106L361 588L361 644Z"  horiz-adv-x="515" vert-adv-y="1000"  />

      
      <glyph glyph-name="uni31" unicode="&#x31;" d="M202 677L137 677L94 720L137 762L288 762L202 677M302 425L262 384L260 386L258 384L218 425L218 662L302 748L302 425M254 375L260 369L258 366L249 375L258 384L260 381L254 375M262 366L260 369L266 375L260 381L262 384L271 375L262 366M260 364L262 366L302 325L302 88L260 45L218 88L218 325L258 366L260 364M274 30L318 73L472 73L515 30L472-12L315-12L274 30M202-12L45-12L5 30L48 73L202 73L246 30L202-12M142 689L197 689L258 750L142 750L111 720L142 689M260 399L290 430L290 718L230 657L230 430L260 399M230 320L230 93L260 63L290 93L290 320L260 351L230 320M323 61L292 30L320 0L467 0L498 30L467 61L323 61M50 0L197 0L228 30L197 61L53 61L22 30L50 0Z"  horiz-adv-x="515" vert-adv-y="1000"  />

      
      <glyph glyph-name="uni32" unicode="&#x32;" d="M135 762L380 762L423 720L380 677L135 677L92 720L135 762M135 417L380 417L423 375L380 333L135 333L92 375L135 417M35 317L77 361L121 317L121 88L35 2L35 317M135 73L436 73L478 30L436-12L49-12L135 73M394 662L438 705L480 662L480 433L438 389L394 433L394 662M375 750L140 750L109 720L140 689L375 689L406 720L375 750M375 405L140 405L109 375L140 345L375 345L406 375L375 405M77 343L47 312L47 32L108 93L108 312L77 343M431 61L140 61L79 0L431 0L461 30L431 61M438 687L407 657L407 438L438 407L468 438L468 657L438 687Z"  horiz-adv-x="515" vert-adv-y="1000"  />

      
      <glyph glyph-name="uni33" unicode="&#x33;" d="M139 417L380 417L423 375L380 333L139 333L96 375L139 417M308 657L416 657L197 439L141 439L141 495L308 657M395 317L438 361L480 317L480 88L438 45L395 88L395 317M478 720L436 677L88 677L45 720L88 762L436 762L478 720M69 73L380 73L423 30L380-12L69-12L27 30L69 73M375 405L145 405L114 375L145 345L375 345L406 375L375 405M386 645L313 645L154 490L154 451L192 451L386 645M438 343L407 312L407 93L438 63L468 93L468 312L438 343M431 689L461 720L431 750L93 750L63 720L93 689L431 689M375 61L74 61L44 30L74 0L375 0L406 30L375 61Z"  horiz-adv-x="515" vert-adv-y="1000"  />

      
      <glyph glyph-name="uni34" unicode="&#x34;" d="M33 417L387 417L429 375L387 333L33 333L-10 375L33 417M309 762L416 762L92 439L36 439L36 495L309 762M401 718L444 760L487 718L487 433L444 389L401 433L401 718M401 317L444 361L487 317L487 32L444-10L401 32L401 317M382 405L39 405L8 375L39 345L382 345L412 375L382 405M386 750L314 750L48 490L48 451L87 451L386 750M444 743L414 713L414 438L444 407L475 438L475 713L444 743M444 343L414 312L414 37L444 7L475 37L475 312L444 343Z"  horiz-adv-x="516" vert-adv-y="1000"  />

      
      <glyph glyph-name="uni35" unicode="&#x35;" d="M423 30L380-12L79-12L37 30L79 73L380 73L423 30M135 333L92 375L135 417L380 417L423 375L380 333L135 333M35 433L35 748L121 662L121 433L77 389L35 433M135 677L49 762L474 762L388 677L135 677M394 88L394 317L438 361L480 317L480 88L438 45L394 88M375 0L406 30L375 61L84 61L55 30L84 0L375 0M109 375L140 345L375 345L406 375L375 405L140 405L109 375M47 718L47 438L77 407L108 438L108 657L47 718M79 750L140 689L383 689L444 750L79 750M407 312L407 93L438 63L468 93L468 312L438 343L407 312Z"  horiz-adv-x="515" vert-adv-y="1000"  />

      
      <glyph glyph-name="uni36" unicode="&#x36;" d="M135-12L92 30L135 73L380 73L423 30L380-12L135-12M135 333L92 375L135 417L380 417L423 375L380 333L135 333M35 433L35 662L77 705L121 662L121 433L77 389L35 433M135 677L92 720L135 762L380 762L423 720L380 677L135 677M394 88L394 317L438 361L480 317L480 88L438 45L394 88M35 317L77 361L121 317L121 88L77 45L35 88L35 317M109 30L140 0L375 0L406 30L375 61L140 61L109 30M109 375L140 345L375 345L406 375L375 405L140 405L109 375M47 657L47 438L77 407L108 438L108 657L77 687L47 657M109 720L140 689L375 689L406 720L375 750L140 750L109 720M407 312L407 93L438 63L468 93L468 312L438 343L407 312M77 343L47 312L47 93L77 63L108 93L108 312L77 343Z"  horiz-adv-x="515" vert-adv-y="1000"  />

      
      <glyph glyph-name="uni37" unicode="&#x37;" d="M375 677L79 677L37 720L79 762L461 762L375 677M433 389L389 433L389 662L475 748L475 433L433 389M418 375L375 333L308 333L264 375L308 417L375 417L418 375M207 317L250 361L292 317L292 32L250-10L207 32L207 317M85 689L370 689L431 750L85 750L55 720L85 689M402 438L433 407L463 438L463 718L402 657L402 438M370 345L401 375L370 405L313 405L282 375L313 345L370 345M250 343L220 312L220 37L250 7L280 37L280 312L250 343Z"  horiz-adv-x="515" vert-adv-y="1000"  />

      
      <glyph glyph-name="uni38" unicode="&#x38;" d="M135 762L380 762L423 720L380 677L135 677L92 720L135 762M135 417L380 417L423 375L380 333L135 333L92 375L135 417M35 317L77 361L121 317L121 88L77 45L35 88L35 317M135 73L380 73L423 30L380-12L135-12L92 30L135 73M394 662L438 705L480 662L480 433L438 389L394 433L394 662M35 662L77 705L121 662L121 433L77 389L35 433L35 662M394 317L438 361L480 317L480 88L438 45L394 88L394 317M375 750L140 750L109 720L140 689L375 689L406 720L375 750M375 405L140 405L109 375L140 345L375 345L406 375L375 405M77 343L47 312L47 93L77 63L108 93L108 312L77 343M375 61L140 61L109 30L140 0L375 0L406 30L375 61M438 687L407 657L407 438L438 407L468 438L468 657L438 687M77 687L47 657L47 438L77 407L108 438L108 657L77 687M438 343L407 312L407 93L438 63L468 93L468 312L438 343Z"  horiz-adv-x="515" vert-adv-y="1000"  />

      
      <glyph glyph-name="uni39" unicode="&#x39;" d="M135-12L92 30L135 73L380 73L423 30L380-12L135-12M135 333L92 375L135 417L380 417L423 375L380 333L135 333M35 433L35 662L77 705L121 662L121 433L77 389L35 433M135 677L92 720L135 762L380 762L423 720L380 677L135 677M394 88L394 317L438 361L480 317L480 88L438 45L394 88M394 662L438 705L480 662L480 433L438 389L394 433L394 662M109 30L140 0L375 0L406 30L375 61L140 61L109 30M109 375L140 345L375 345L406 375L375 405L140 405L109 375M47 657L47 438L77 407L108 438L108 657L77 687L47 657M109 720L140 689L375 689L406 720L375 750L140 750L109 720M407 312L407 93L438 63L468 93L468 312L438 343L407 312M438 687L407 657L407 438L438 407L468 438L468 657L438 687Z"  horiz-adv-x="515" vert-adv-y="1000"  />

      
      <glyph glyph-name="uni3a" unicode="&#x3a;" d="M77 453L119 411L119 352L77 310L35 352L35 411L77 453M77-3L35 39L35 98L77 140L119 98L119 39L77-3M107 406L77 436L47 406L47 357L77 327L107 357L107 406M47 44L77 14L107 44L107 93L77 123L47 93L47 44Z"  horiz-adv-x="154" vert-adv-y="1000"  />

      
      <glyph glyph-name="uni3b" unicode="&#x3b;" d="M77 455L119 412L119 354L77 310L35 354L35 412L77 455M119 35L35-51L35 99L78 141L119 99L119 35M107 407L77 438L47 407L47 359L77 328L107 359L107 407M47-21L107 40L107 94L78 123L47 94L47-21Z"  horiz-adv-x="154" vert-adv-y="1000"  />

      
      <glyph glyph-name="uni3c" unicode="&#x3c;" d="M230 177L41 366L161 366L289 238L289 177L230 177M161 385L41 385L230 574L289 574L289 513L161 385M71 353L235 189L277 189L277 232L156 353L71 353M71 398L156 398L277 519L277 562L235 562L71 398Z"  horiz-adv-x="324" vert-adv-y="1000"  />

      
      <glyph glyph-name="uni3d" unicode="&#x3d;" d="M79 523L324 523L367 479L324 437L79 437L36 479L79 523M79 313L324 313L367 271L324 227L79 227L36 271L79 313M319 510L84 510L53 479L84 449L319 449L350 479L319 510M319 301L84 301L53 271L84 240L319 240L350 271L319 301Z"  horiz-adv-x="403" vert-adv-y="1000"  />

      
      <glyph glyph-name="uni3e" unicode="&#x3e;" d="M94 177L35 177L35 238L163 366L283 366L94 177M163 385L35 513L35 574L94 574L283 385L163 385M47 189L89 189L253 353L168 353L47 232L47 189M47 519L168 398L253 398L89 562L47 562L47 519Z"  horiz-adv-x="324" vert-adv-y="1000"  />

      
      <glyph glyph-name="uni3f" unicode="&#x3f;" d="M328 677L32 677L-10 720L32 762L328 762L371 720L328 677M386 389L342 433L342 662L386 705L428 662L428 433L386 389M371 375L328 333L261 333L217 375L261 417L328 417L371 375M203 129L205 131L245 91L245 32L203-10L160 32L160 91L200 131L203 129M197 140L203 134L200 131L191 140L200 149L203 147L197 140M245 189L205 149L203 152L200 149L160 189L160 317L203 361L245 317L245 189M205 131L203 134L209 140L203 147L205 149L214 140L205 131M38 689L323 689L354 720L323 750L38 750L8 720L38 689M355 438L386 407L416 438L416 657L386 687L355 657L355 438M323 345L354 375L323 405L266 405L235 375L266 345L323 345M173 37L203 7L233 37L233 86L203 117L173 86L173 37M203 164L233 194L233 312L203 343L173 312L173 194L203 164Z"  horiz-adv-x="463" vert-adv-y="1000"  />

      
      <glyph glyph-name="uni40" unicode="&#x40;" d="M136 762L380 762L424 720L380 677L136 677L93 720L136 762M136 73L380 73L424 30L380-12L135-12L93 30L136 73M78 364L80 366L121 325L121 88L78 45L35 88L35 325L75 366L78 364M72 375L78 369L75 366L66 375L75 384L78 381L72 375M121 425L80 384L78 386L75 384L35 425L35 662L78 705L121 662L121 425M80 366L78 369L84 375L78 381L80 384L89 375L80 366M724 762L767 720L724 677L480 677L436 720L480 762L724 762M782 705L825 662L825 295L782 253L739 295L739 662L782 705M368 281L488 281L530 239L488 195L368 195L326 239L368 281M268 463L311 505L354 463L354 295L311 253L268 295L268 463M366 563L488 563L530 520L488 477L368 477L326 520L366 563M502 463L545 505L588 463L588 295L545 253L502 293L502 463M603 195L559 239L603 281L724 281L767 239L724 195L603 195M375 750L141 750L111 720L141 689L375 689L406 720L375 750M375 61L141 61L111 30L140 0L375 0L406 30L375 61M78 351L48 320L48 93L78 63L109 93L109 320L78 351M78 399L109 430L109 657L78 687L48 657L48 430L78 399M749 720L719 750L485 750L454 720L485 689L719 689L749 720M812 657L782 687L751 657L751 301L782 271L812 301L812 657M483 269L373 269L343 239L373 208L483 208L513 239L483 269M311 488L280 458L280 301L311 271L341 301L341 458L311 488M483 551L371 551L343 520L373 490L483 490L513 520L483 551M545 488L515 458L515 299L545 271L576 301L576 458L545 488M577 239L608 208L719 208L749 239L719 269L608 269L577 239Z"  horiz-adv-x="860" vert-adv-y="1000"  />

      
      <glyph glyph-name="uni41" unicode="&#x41;" d="M135 762L466 762L380 677L135 677L92 720L135 762M135 417L380 417L423 375L380 333L135 333L92 375L135 417M35 317L77 361L121 317L121 32L77-10L35 32L35 317M394 662L480 748L480 433L438 389L394 433L394 662M35 662L77 705L121 662L121 433L77 389L35 433L35 662M394 317L438 361L480 317L480 32L438-10L394 32L394 317M436 750L140 750L109 720L140 689L375 689L436 750M375 405L140 405L109 375L140 345L375 345L406 375L375 405M77 343L47 312L47 37L77 7L108 37L108 312L77 343M468 718L407 657L407 438L438 407L468 438L468 718M77 687L47 657L47 438L77 407L108 438L108 657L77 687M438 343L407 312L407 37L438 7L468 37L468 312L438 343Z"  horiz-adv-x="515" vert-adv-y="1000"  />

      
      <glyph glyph-name="uni42" unicode="&#x42;" d="M49 762L380 762L423 720L380 677L135 677L49 762M135 417L380 417L423 375L380 333L135 333L92 375L135 417M35 317L77 361L121 317L121 88L35 2L35 317M135 73L380 73L423 30L380-12L49-12L135 73M394 662L438 705L480 662L480 433L438 389L394 433L394 662M35 748L121 662L121 433L77 389L35 433L35 748M394 317L438 361L480 317L480 88L438 45L394 88L394 317M375 750L79 750L140 689L375 689L406 720L375 750M375 405L140 405L109 375L140 345L375 345L406 375L375 405M77 343L47 312L47 32L108 93L108 312L77 343M375 61L140 61L79 0L375 0L406 30L375 61M438 687L407 657L407 438L438 407L468 438L468 657L438 687M108 657L47 718L47 438L77 407L108 438L108 657M438 343L407 312L407 93L438 63L468 93L468 312L438 343Z"  horiz-adv-x="515" vert-adv-y="1000"  />

      
      <glyph glyph-name="uni43" unicode="&#x43;" d="M135 762L380 762L423 720L380 677L135 677L92 720L135 762M35 662L77 705L121 662L121 425L80 384L77 386L75 384L35 425L35 662M71 375L77 369L75 366L66 375L75 384L77 381L71 375M80 366L77 369L83 375L77 381L80 384L89 375L80 366M77 364L80 366L121 325L121 88L77 45L35 88L35 325L75 366L77 364M135 73L380 73L423 30L380-12L135-12L92 30L135 73M438 220L480 178L480 88L438 45L394 88L394 178L438 220M480 662L480 572L438 530L394 572L394 662L438 705L480 662M375 750L140 750L109 720L140 689L375 689L406 720L375 750M77 687L47 657L47 430L77 399L108 430L108 657L77 687M47 320L47 93L77 63L108 93L108 320L77 351L47 320M375 61L140 61L109 30L140 0L375 0L406 30L375 61M468 173L438 202L407 173L407 93L438 63L468 93L468 173M468 577L468 657L438 687L407 657L407 577L438 548L468 577Z"  horiz-adv-x="515" vert-adv-y="1000"  />

      
      <glyph glyph-name="uni44" unicode="&#x44;" d="M49 762L380 762L423 720L380 677L135 677L49 762M35 748L121 662L121 425L80 384L77 386L75 384L35 425L35 748M71 375L77 369L75 366L66 375L75 384L77 381L71 375M80 366L77 369L83 375L77 381L80 384L89 375L80 366M77 364L80 366L121 325L121 88L35 2L35 325L75 366L77 364M380 73L423 30L380-12L49-12L135 73L380 73M438 364L440 366L480 325L480 88L438 45L394 88L394 325L435 366L438 364M432 375L438 369L435 366L426 375L435 384L438 381L432 375M480 425L440 384L438 386L435 384L394 425L394 662L438 705L480 662L480 425M440 366L438 369L444 375L438 381L440 384L449 375L440 366M375 750L79 750L140 689L375 689L406 720L375 750M108 657L47 718L47 430L77 399L108 430L108 657M47 320L47 32L108 93L108 320L77 351L47 320M406 30L375 61L140 61L79 0L375 0L406 30M407 320L407 93L438 63L468 93L468 320L438 351L407 320M438 399L468 430L468 657L438 687L407 657L407 430L438 399Z"  horiz-adv-x="515" vert-adv-y="1000"  />

      
      <glyph glyph-name="uni45" unicode="&#x45;" d="M49 762L389 762L431 720L389 677L135 677L49 762M135 417L389 417L431 375L389 333L135 333L93 375L135 417M35 317L77 361L120 317L120 88L35 2L35 317M35 748L120 662L120 433L77 389L35 433L35 748M49-12L135 73L389 73L431 30L389-12L49-12M384 750L79 750L140 689L384 689L414 720L384 750M384 405L140 405L110 375L140 345L384 345L414 375L384 405M77 343L47 312L47 32L108 93L108 312L77 343M108 657L47 718L47 438L77 407L108 438L108 657M140 61L79 0L384 0L414 30L384 61L140 61Z"  horiz-adv-x="433" vert-adv-y="1000"  />

      
      <glyph glyph-name="uni46" unicode="&#x46;" d="M49 762L389 762L431 720L389 677L135 677L49 762M135 417L389 417L431 375L389 333L135 333L93 375L135 417M35 317L77 361L120 317L120 32L77-10L35 32L35 317M35 748L120 662L120 433L77 389L35 433L35 748M384 750L79 750L140 689L384 689L414 720L384 750M384 405L140 405L110 375L140 345L384 345L414 375L384 405M77 343L47 312L47 37L77 7L108 37L108 312L77 343M108 657L47 718L47 438L77 407L108 438L108 657Z"  horiz-adv-x="433" vert-adv-y="1000"  />

      
      <glyph glyph-name="uni47" unicode="&#x47;" d="M135 762L380 762L423 720L380 677L135 677L92 720L135 762M380 333L272 333L230 375L272 417L466 417L380 333M35 662L77 705L121 662L121 425L80 384L77 386L75 384L35 425L35 662M71 375L77 369L75 366L66 375L75 384L77 381L71 375M80 366L77 369L83 375L77 381L80 384L89 375L80 366M77 364L80 366L121 325L121 88L77 45L35 88L35 325L75 366L77 364M135 73L380 73L423 30L380-12L135-12L92 30L135 73M394 317L480 403L480 88L438 45L394 88L394 317M480 575L438 533L394 575L394 662L438 705L480 662L480 575M375 750L140 750L109 720L140 689L375 689L406 720L375 750M278 345L375 345L436 405L278 405L248 375L278 345M77 687L47 657L47 430L77 399L108 430L108 657L77 687M47 320L47 93L77 63L108 93L108 320L77 351L47 320M375 61L140 61L109 30L140 0L375 0L406 30L375 61M468 373L407 312L407 93L438 63L468 93L468 373M438 551L468 581L468 657L438 687L407 657L407 581L438 551Z"  horiz-adv-x="515" vert-adv-y="1000"  />

      
      <glyph glyph-name="uni48" unicode="&#x48;" d="M135 417L380 417L423 375L380 333L135 333L92 375L135 417M35 317L77 361L121 317L121 32L77-10L35 32L35 317M35 433L35 718L77 760L121 718L121 433L77 389L35 433M394 317L438 361L480 317L480 32L438-10L394 32L394 317M394 433L394 718L438 760L480 718L480 433L438 389L394 433M375 405L140 405L109 375L140 345L375 345L406 375L375 405M77 343L47 312L47 37L77 7L108 37L108 312L77 343M47 713L47 438L77 407L108 438L108 713L77 743L47 713M438 343L407 312L407 37L438 7L468 37L468 312L438 343M407 713L407 438L438 407L468 438L468 713L438 743L407 713Z"  horiz-adv-x="515" vert-adv-y="1000"  />

      
      <glyph glyph-name="uni49" unicode="&#x49;" d="M215 662L257 705L299 663L299 425L259 384L257 386L255 384L215 425L215 662M251 375L257 369L255 366L246 375L255 384L257 381L251 375M259 366L257 369L263 375L257 381L259 384L268 375L259 366M257 364L259 366L299 325L299 88L257 45L215 88L215 325L255 366L257 364M271 30L315 73L435 73L477 30L435-12L315-12L271 30M199-12L79-12L37 30L79 73L199 73L243 30L199-12M271 720L315 762L435 762L477 720L435 677L315 677L271 720M199 677L79 677L37 720L79 762L199 762L243 720L199 677M257 687L227 657L227 430L257 399L287 430L287 658L257 687M227 320L227 93L257 63L287 93L287 320L257 351L227 320M320 61L289 30L320 0L430 0L459 30L430 61L320 61M84 0L194 0L225 30L194 61L84 61L55 30L84 0M320 750L289 720L320 689L430 689L459 720L430 750L320 750M84 689L194 689L225 720L194 750L84 750L55 720L84 689Z"  horiz-adv-x="514" vert-adv-y="1000"  />

      
      <glyph glyph-name="uni4a" unicode="&#x4a;" d="M35 317L77 361L121 317L121 88L77 45L35 88L35 317M135 73L380 73L423 30L380-12L135-12L92 30L135 73M394 433L394 718L438 760L480 718L480 433L438 389L394 433M394 317L438 361L480 317L480 88L438 45L394 88L394 317M77 343L47 312L47 93L77 63L108 93L108 312L77 343M375 61L140 61L109 30L140 0L375 0L406 30L375 61M407 713L407 438L438 407L468 438L468 713L438 743L407 713M438 343L407 312L407 93L438 63L468 93L468 312L438 343Z"  horiz-adv-x="515" vert-adv-y="1000"  />

      
      <glyph glyph-name="uni4b" unicode="&#x4b;" d="M135 417L380 417L423 375L380 333L135 333L92 375L135 417M35 317L77 361L121 317L121 32L77-10L35 32L35 317M35 433L35 718L77 760L121 718L121 433L77 389L35 433M394 317L438 361L480 317L480 32L438-10L394 32L394 317M377 762L434 762L434 706L197 439L141 439L141 495L377 762M375 405L140 405L109 375L140 345L375 345L406 375L375 405M77 343L47 312L47 37L77 7L108 37L108 312L77 343M47 713L47 438L77 407L108 438L108 713L77 743L47 713M438 343L407 312L407 37L438 7L468 37L468 312L438 343M421 750L382 750L154 490L154 451L192 451L421 711L421 750Z"  horiz-adv-x="515" vert-adv-y="1000"  />

      
      <glyph glyph-name="uni4c" unicode="&#x4c;" d="M49-12L135 73L386 73L428 30L386-12L49-12M77 364L79 366L120 325L120 88L35 2L35 325L75 366L77 364M71 375L77 369L75 366L66 375L75 384L77 381L71 375M120 425L79 384L77 386L75 384L35 425L35 718L77 760L120 718L120 425M79 366L77 369L83 375L77 381L79 384L88 375L79 366M140 61L79 0L381 0L411 30L381 61L140 61M47 320L47 32L108 93L108 320L77 351L47 320M77 399L108 430L108 713L77 743L47 713L47 430L77 399Z"  horiz-adv-x="418" vert-adv-y="1000"  />

      
      <glyph glyph-name="uni4d" unicode="&#x4d;" d="M121 425L80 384L77 386L75 384L35 425L35 718L77 760L121 718L121 425M71 375L77 369L75 366L66 375L75 384L77 381L71 375M80 366L77 369L83 375L77 381L80 384L89 375L80 366M77 364L80 366L121 325L121 32L77-10L35 32L35 325L75 366L77 364M339 518L339 387L141 658L141 716L197 716L339 518M615 375L621 369L618 366L609 375L618 384L621 381L615 375M623 366L621 369L627 375L621 381L623 384L632 375L623 366M621 364L623 366L663 325L663 32L621-10L577 32L577 325L618 366L621 364M577 425L577 718L621 760L663 718L663 425L623 384L621 386L618 384L577 425M359 518L501 716L557 716L557 658L359 387L359 518M77 399L108 430L108 713L77 743L47 713L47 430L77 399M47 320L47 37L77 7L108 37L108 320L77 351L47 320M326 426L326 513L191 704L154 704L154 662L326 426M590 320L590 37L621 7L651 37L651 320L621 351L590 320M590 713L590 430L621 399L651 430L651 713L621 743L590 713M507 704L372 513L372 426L544 662L544 704L507 704Z"  horiz-adv-x="698" vert-adv-y="1000"  />

      
      <glyph glyph-name="uni4e" unicode="&#x4e;" d="M394 718L438 760L480 718L480 425L440 384L438 386L435 384L394 425L394 718M432 375L438 369L435 366L426 375L435 384L438 381L432 375M440 366L438 369L444 375L438 381L440 384L449 375L440 366M438 364L440 366L480 325L480 32L438-10L394 32L394 325L435 366L438 364M121 425L80 384L77 386L75 384L35 425L35 718L77 760L121 718L121 425M71 375L77 369L75 366L66 375L75 384L77 381L71 375M80 366L77 369L83 375L77 381L80 384L89 375L80 366M77 364L80 366L121 325L121 32L77-10L35 32L35 325L75 366L77 364M374 427L318 427L141 658L141 716L197 716L374 483L374 427M438 743L407 713L407 430L438 399L468 430L468 713L438 743M407 320L407 37L438 7L468 37L468 320L438 351L407 320M77 399L108 430L108 713L77 743L47 713L47 430L77 399M47 320L47 37L77 7L108 37L108 320L77 351L47 320M324 439L361 439L361 479L191 704L154 704L154 662L324 439Z"  horiz-adv-x="515" vert-adv-y="1000"  />

      
      <glyph glyph-name="uni4f" unicode="&#x4f;" d="M135 762L380 762L423 720L380 677L135 677L92 720L135 762M135 73L380 73L423 30L380-12L134-12L92 30L135 73M438 364L440 366L480 325L480 88L438 45L394 88L394 325L435 366L438 364M432 375L438 369L435 366L426 375L435 383L438 381L432 375M480 425L440 384L438 386L435 383L394 421L394 662L438 705L480 662L480 425M440 366L438 369L444 375L438 381L440 384L449 375L440 366M77 364L80 366L121 325L121 88L77 45L35 88L35 325L75 366L77 364M71 375L77 369L75 366L66 375L75 384L77 381L71 375M121 425L80 384L77 386L75 384L35 425L35 662L77 705L121 662L121 425M80 366L77 369L83 375L77 381L80 384L89 375L80 366M375 750L140 750L109 720L140 689L375 689L406 720L375 750M375 61L140 61L109 30L139 0L375 0L406 30L375 61M438 351L407 320L407 93L438 63L468 93L468 320L438 351M438 399L468 430L468 657L438 687L407 657L407 427L438 399M77 351L47 320L47 93L77 63L108 93L108 320L77 351M77 399L108 430L108 657L77 687L47 657L47 430L77 399Z"  horiz-adv-x="515" vert-adv-y="1000"  />

      
      <glyph glyph-name="uni50" unicode="&#x50;" d="M49 762L388 762L431 720L388 677L135 677L49 762M135 417L388 417L431 375L388 333L135 333L92 375L135 417M35 317L77 361L121 317L121 32L77-10L35 32L35 317M35 748L121 662L121 433L77 389L35 433L35 748M488 433L446 389L403 433L403 662L446 705L488 662L488 433M383 750L79 750L140 689L383 689L414 720L383 750M383 405L140 405L109 375L140 345L383 345L414 375L383 405M77 343L47 312L47 37L77 7L108 37L108 312L77 343M108 657L47 718L47 438L77 407L108 438L108 657M446 407L476 438L476 657L446 687L415 657L415 438L446 407Z"  horiz-adv-x="523" vert-adv-y="1000"  />

      
      <glyph glyph-name="uni51" unicode="&#x51;" d="M135 766L380 766L423 724L380 681L135 681L92 724L135 766M244 34L200-8L134-8L92 34L135 77L200 77L244 34M316-8L272 34L316 77L380 77L423 34L380-8L316-8M438 368L440 370L480 329L480 92L438 49L394 92L394 329L435 370L438 368M432 379L438 373L435 370L426 379L435 387L438 385L432 379M480 428L440 388L438 390L435 387L394 425L394 666L438 709L480 666L480 428M440 370L438 373L444 379L438 385L440 388L449 379L440 370M77 368L80 370L121 329L121 92L77 49L35 92L35 329L75 370L77 368M71 379L77 373L75 370L66 379L75 388L77 385L71 379M121 428L80 388L77 390L75 388L35 428L35 666L77 709L121 666L121 428M80 370L77 373L83 379L77 385L80 388L89 379L80 370M300-23L300-93L258-135L216-93L216-23L258 19L300-23M300 92L258 49L216 92L216 162L258 204L300 162L300 92M272-151L316-108L380-108L423-151L380-193L316-193L272-151M375 754L140 754L109 724L140 693L375 693L406 724L375 754M195 4L226 34L195 65L140 65L109 34L139 4L195 4M290 34L321 4L375 4L406 34L375 65L321 65L290 34M438 355L407 324L407 97L438 67L468 97L468 324L438 355M438 403L468 433L468 661L438 691L407 661L407 431L438 403M77 355L47 324L47 97L77 67L108 97L108 324L77 355M77 403L108 433L108 661L77 691L47 661L47 433L77 403M288-88L288-28L258 2L228-28L228-88L258-118L288-88M258 67L288 97L288 157L258 187L228 157L228 97L258 67M321-120L290-151L321-181L375-181L406-151L375-120L321-120Z"  horiz-adv-x="515" vert-adv-y="1000"  />

      
      <glyph glyph-name="uni52" unicode="&#x52;" d="M135 333L92 375L135 417L380 417L423 375L380 333L135 333M35 433L35 748L121 662L121 433L77 389L35 433M35 317L77 361L121 317L121 32L77-10L35 32L35 317M394 433L394 662L438 705L480 662L480 433L438 389L394 433M197 311L465 44L465-12L409-12L141 255L141 311L197 311M49 762L380 762L423 720L380 677L135 677L49 762M109 375L140 345L375 345L406 375L375 405L140 405L109 375M47 718L47 438L77 407L108 438L108 657L47 718M77 343L47 312L47 37L77 7L108 37L108 312L77 343M407 657L407 438L438 407L468 438L468 657L438 687L407 657M452 39L192 299L154 299L154 260L414 0L452 0L452 39M375 750L79 750L140 689L375 689L406 720L375 750Z"  horiz-adv-x="515" vert-adv-y="1000"  />

      
      <glyph glyph-name="uni53" unicode="&#x53;" d="M135 762L380 762L423 720L380 677L135 677L92 720L135 762M135 417L380 417L423 375L380 333L135 333L92 375L135 417M135 73L380 73L423 30L380-12L135-12L92 30L135 73M35 662L77 705L121 662L121 433L77 389L35 433L35 662M394 317L438 361L480 317L480 88L438 45L394 88L394 317M35 88L35 158L77 200L121 158L121 88L77 45L35 88M394 592L394 662L438 705L480 662L480 592L438 550L394 592M375 750L140 750L109 720L140 689L375 689L406 720L375 750M375 405L140 405L109 375L140 345L375 345L406 375L375 405M375 61L140 61L109 30L140 0L375 0L406 30L375 61M77 687L47 657L47 438L77 407L108 438L108 657L77 687M438 343L407 312L407 93L438 63L468 93L468 312L438 343M47 153L47 93L77 63L108 93L108 153L77 183L47 153M407 657L407 597L438 567L468 597L468 657L438 687L407 657Z"  horiz-adv-x="515" vert-adv-y="1000"  />

      
      <glyph glyph-name="uni54" unicode="&#x54;" d="M232 662L274 705L316 663L316 425L276 384L274 386L272 384L232 425L232 662M268 375L274 369L272 366L263 375L272 384L274 381L268 375M276 366L274 369L280 375L274 381L276 384L285 375L276 366M274 364L276 366L316 325L316 32L274-10L232 32L232 325L272 366L274 364M288 720L332 762L515 762L558 720L515 677L332 677L288 720M216 677L33 677L-10 720L33 762L216 762L260 720L216 677M274 687L244 657L244 430L274 399L304 430L304 658L274 687M244 320L244 37L274 7L304 37L304 320L274 351L244 320M337 750L306 720L337 689L510 689L541 720L510 750L337 750M38 689L211 689L242 720L211 750L38 750L7 720L38 689Z"  horiz-adv-x="548" vert-adv-y="1000"  />

      
      <glyph glyph-name="uni55" unicode="&#x55;" d="M135 73L380 73L423 30L380-12L134-12L92 30L135 73M438 364L440 366L480 325L480 88L438 45L394 88L394 325L435 366L438 364M432 375L438 369L435 366L426 375L435 384L438 381L432 375M480 425L440 384L438 386L435 384L394 422L394 718L438 760L480 718L480 425M440 366L438 369L444 375L438 381L440 384L449 375L440 366M77 364L80 366L121 325L121 88L77 45L35 88L35 325L75 366L77 364M71 375L77 369L75 366L66 375L75 384L77 381L71 375M121 425L80 384L77 386L75 384L35 425L35 718L77 760L121 718L121 425M80 366L77 369L83 375L77 381L80 384L89 375L80 366M375 61L140 61L109 30L139 0L375 0L406 30L375 61M438 351L407 320L407 93L438 63L468 93L468 320L438 351M438 399L468 430L468 713L438 743L407 713L407 427L438 399M77 351L47 320L47 93L77 63L108 93L108 320L77 351M77 399L108 430L108 713L77 743L47 713L47 430L77 399Z"  horiz-adv-x="515" vert-adv-y="1000"  />

      
      <glyph glyph-name="uni56" unicode="&#x56;" d="M78 364L80 366L121 325L121 32L78-10L35 32L35 325L75 366L78 364M71 375L78 369L75 366L66 375L75 384L78 381L71 375M121 425L80 384L78 386L75 384L35 425L35 718L78 760L121 718L121 425M80 366L78 369L84 375L78 381L80 384L89 375L80 366M369 718L413 760L455 718L455 425L412 381L369 425L369 718M400 312L141 53L141 173L365 399L400 365L400 312M78 351L48 320L48 37L78 7L109 37L109 320L78 351M78 399L109 430L109 713L78 743L48 713L48 430L78 399M413 743L381 713L381 430L412 399L442 430L442 713L413 743M153 83L388 317L388 360L365 381L153 167L153 83Z"  horiz-adv-x="490" vert-adv-y="1000"  />

      
      <glyph glyph-name="uni57" unicode="&#x57;" d="M77 364L80 366L121 325L121 32L77-10L35 32L35 325L75 366L77 364M71 375L77 369L75 366L66 375L75 384L77 381L71 375M121 425L80 384L77 386L75 384L35 425L35 718L77 760L121 718L121 425M80 366L77 369L83 375L77 381L80 384L89 375L80 366M339 232L197 34L141 34L141 92L339 363L339 232M621 364L623 366L663 325L663 32L621-10L577 32L577 325L618 366L621 364M615 375L621 369L618 366L609 375L618 384L621 381L615 375M663 425L623 384L621 386L618 384L577 425L577 718L621 760L663 718L663 425M623 366L621 369L627 375L621 381L623 384L632 375L623 366M359 232L359 363L557 92L557 34L501 34L359 232M108 37L108 320L77 351L47 320L47 37L77 7L108 37M77 399L108 430L108 713L77 743L47 713L47 430L77 399M191 46L326 237L326 324L154 88L154 46L191 46M621 351L590 320L590 37L621 7L651 37L651 320L621 351M621 399L651 430L651 713L621 743L590 713L590 430L621 399M372 324L372 237L507 46L544 46L544 88L372 324Z"  horiz-adv-x="698" vert-adv-y="1000"  />

      
      <glyph glyph-name="uni58" unicode="&#x58;" d="M35 49L207 367L265 367L265 304L94-12L35-12L35 49M284 446L455 762L514 762L514 701L342 385L284 385L284 446M284 304L284 367L342 367L514 49L514-12L455-12L284 304M35 701L35 762L94 762L265 446L265 385L207 385L35 701M214 354L48 45L48 0L87 0L252 307L252 354L214 354M462 750L297 443L297 398L335 398L501 705L501 750L462 750M297 354L297 307L462 0L501 0L501 45L335 354L297 354M48 750L48 705L214 398L252 398L252 443L87 750L48 750Z"  horiz-adv-x="549" vert-adv-y="1000"  />

      
      <glyph glyph-name="uni59" unicode="&#x59;" d="M135 417L380 417L423 375L380 333L135 333L92 375L135 417M380-12L79-12L37 30L79 73L380 73L423 30L380-12M394 433L394 718L438 760L480 718L480 433L438 389L394 433M35 433L35 718L77 760L121 718L121 433L77 389L35 433M394 317L438 361L480 317L480 88L438 45L394 88L394 317M375 405L140 405L109 375L140 345L375 345L406 375L375 405M84 0L375 0L406 30L375 61L84 61L55 30L84 0M407 713L407 438L438 407L468 438L468 713L438 743L407 713M47 713L47 438L77 407L108 438L108 713L77 743L47 713M438 343L407 312L407 93L438 63L468 93L468 312L438 343Z"  horiz-adv-x="515" vert-adv-y="1000"  />

      
      <glyph glyph-name="uni5a" unicode="&#x5a;" d="M46 762L440 762L483 720L440 677L46 677L3 720L46 762M46 73L440 73L483 30L440-12L46-12L3 30L46 73M239 379L241 372L237 371L234 383L246 384L247 380L239 379M242 368L241 372L249 373L247 380L251 381L254 369L242 368M238 367L242 368L254 315L109 93L48 93L48 155L184 363L237 371L238 367M234 438L378 657L438 657L438 596L303 388L251 381L250 385L246 384L234 438M435 750L51 750L21 720L51 689L435 689L465 720L435 750M435 61L51 61L21 30L51 0L435 0L465 30L435 61M191 351L60 151L60 105L103 105L241 317L232 357L191 351M385 645L247 436L256 394L296 400L426 600L426 645L385 645Z"  horiz-adv-x="486" vert-adv-y="1000"  />

      
      <glyph glyph-name="uni5b" unicode="&#x5b;" d="M135 677L49 762L201 762L243 720L201 677L135 677M77 364L79 366L120 325L120 88L35 2L35 325L75 366L77 364M71 375L77 369L75 366L66 375L75 384L77 381L71 375M120 425L79 384L77 386L75 384L35 425L35 748L120 662L120 425M79 366L77 369L83 375L77 381L79 384L88 375L79 366M135 73L201 73L243 30L201-12L49-12L135 73M79 750L140 689L196 689L226 720L196 750L79 750M77 351L47 320L47 32L108 93L108 320L77 351M77 399L108 430L108 657L47 718L47 430L77 399M196 61L140 61L79 0L196 0L226 30L196 61Z"  horiz-adv-x="245" vert-adv-y="1000"  />

      
      <glyph glyph-name="uni5c" unicode="&#x5c;" d="M76 742L353 30L329-11L276 8L0 720L24 761L76 742M339 31L66 732L29 746L14 719L286 18L324 4L339 31Z"  horiz-adv-x="353" vert-adv-y="1000"  />

      
      <glyph glyph-name="uni5d" unicode="&#x5d;" d="M110 677L44 677L2 720L44 762L196 762L110 677M210 425L170 384L168 386L166 384L125 425L125 662L210 748L210 425M162 375L168 369L166 366L157 375L166 384L168 381L162 375M170 366L168 369L174 375L168 381L170 384L179 375L170 366M168 364L170 366L210 325L210 2L125 88L125 325L166 366L168 364M110 73L196-12L44-12L2 30L44 73L110 73M49 689L105 689L166 750L49 750L19 720L49 689M168 399L198 430L198 718L137 657L137 430L168 399M137 320L137 93L198 32L198 320L168 351L137 320M166 0L105 61L49 61L19 30L49 0L166 0Z"  horiz-adv-x="245" vert-adv-y="1000"  />

      
      <glyph glyph-name="uni5e" unicode="&#x5e;" d="M0 556L189 745L189 625L61 497L0 497L0 556M208 625L208 745L397 556L397 497L336 497L208 625M176 715L12 551L12 509L55 509L176 630L176 715M221 715L221 630L342 509L385 509L385 551L221 715Z"  horiz-adv-x="397" vert-adv-y="1000"  />

      
      <glyph glyph-name="uni5f" unicode="&#x5f;" d="M-10-132L32-90L723-90L765-132L723-174L32-174L-10-132M37-102L7-132L37-162L718-162L748-132L718-102L37-102Z"  horiz-adv-x="755" vert-adv-y="1000"  />

      
      <glyph glyph-name="uni60" unicode="&#x60;" d="M128 562L0 689L0 750L60 750L185 625L185 562L128 562M12 694L133 574L173 574L173 620L55 738L12 738L12 694Z"  horiz-adv-x="185" vert-adv-y="1000"  />

      
      <glyph glyph-name="uni61" unicode="&#x61;" d="M135 762L466 762L380 677L135 677L92 720L135 762M135 417L380 417L423 375L380 333L135 333L92 375L135 417M35 317L77 361L121 317L121 32L77-10L35 32L35 317M394 662L480 748L480 433L438 389L394 433L394 662M35 662L77 705L121 662L121 433L77 389L35 433L35 662M394 317L438 361L480 317L480 32L438-10L394 32L394 317M436 750L140 750L109 720L140 689L375 689L436 750M375 405L140 405L109 375L140 345L375 345L406 375L375 405M77 343L47 312L47 37L77 7L108 37L108 312L77 343M468 718L407 657L407 438L438 407L468 438L468 718M77 687L47 657L47 438L77 407L108 438L108 657L77 687M438 343L407 312L407 37L438 7L468 37L468 312L438 343Z"  horiz-adv-x="515" vert-adv-y="1000"  />

      
      <glyph glyph-name="uni62" unicode="&#x62;" d="M49 762L380 762L423 720L380 677L135 677L49 762M135 417L380 417L423 375L380 333L135 333L92 375L135 417M35 317L77 361L121 317L121 88L35 2L35 317M135 73L380 73L423 30L380-12L49-12L135 73M394 662L438 705L480 662L480 433L438 389L394 433L394 662M35 748L121 662L121 433L77 389L35 433L35 748M394 317L438 361L480 317L480 88L438 45L394 88L394 317M375 750L79 750L140 689L375 689L406 720L375 750M375 405L140 405L109 375L140 345L375 345L406 375L375 405M77 343L47 312L47 32L108 93L108 312L77 343M375 61L140 61L79 0L375 0L406 30L375 61M438 687L407 657L407 438L438 407L468 438L468 657L438 687M108 657L47 718L47 438L77 407L108 438L108 657M438 343L407 312L407 93L438 63L468 93L468 312L438 343Z"  horiz-adv-x="515" vert-adv-y="1000"  />

      
      <glyph glyph-name="uni63" unicode="&#x63;" d="M135 762L380 762L423 720L380 677L135 677L92 720L135 762M35 662L77 705L121 662L121 425L80 384L77 386L75 384L35 425L35 662M71 375L77 369L75 366L66 375L75 384L77 381L71 375M80 366L77 369L83 375L77 381L80 384L89 375L80 366M77 364L80 366L121 325L121 88L77 45L35 88L35 325L75 366L77 364M135 73L380 73L423 30L380-12L135-12L92 30L135 73M438 220L480 178L480 88L438 45L394 88L394 178L438 220M480 662L480 572L438 530L394 572L394 662L438 705L480 662M375 750L140 750L109 720L140 689L375 689L406 720L375 750M77 687L47 657L47 430L77 399L108 430L108 657L77 687M47 320L47 93L77 63L108 93L108 320L77 351L47 320M375 61L140 61L109 30L140 0L375 0L406 30L375 61M468 173L438 202L407 173L407 93L438 63L468 93L468 173M468 577L468 657L438 687L407 657L407 577L438 548L468 577Z"  horiz-adv-x="515" vert-adv-y="1000"  />

      
      <glyph glyph-name="uni64" unicode="&#x64;" d="M49 762L380 762L423 720L380 677L135 677L49 762M35 748L121 662L121 425L80 384L77 386L75 384L35 425L35 748M71 375L77 369L75 366L66 375L75 384L77 381L71 375M80 366L77 369L83 375L77 381L80 384L89 375L80 366M77 364L80 366L121 325L121 88L35 2L35 325L75 366L77 364M380 73L423 30L380-12L49-12L135 73L380 73M438 364L440 366L480 325L480 88L438 45L394 88L394 325L435 366L438 364M432 375L438 369L435 366L426 375L435 384L438 381L432 375M480 425L440 384L438 386L435 384L394 425L394 662L438 705L480 662L480 425M440 366L438 369L444 375L438 381L440 384L449 375L440 366M375 750L79 750L140 689L375 689L406 720L375 750M108 657L47 718L47 430L77 399L108 430L108 657M47 320L47 32L108 93L108 320L77 351L47 320M406 30L375 61L140 61L79 0L375 0L406 30M407 320L407 93L438 63L468 93L468 320L438 351L407 320M438 399L468 430L468 657L438 687L407 657L407 430L438 399Z"  horiz-adv-x="515" vert-adv-y="1000"  />

      
      <glyph glyph-name="uni65" unicode="&#x65;" d="M49 762L389 762L431 720L389 677L135 677L49 762M135 417L389 417L431 375L389 333L135 333L93 375L135 417M35 317L77 361L120 317L120 88L35 2L35 317M35 748L120 662L120 433L77 389L35 433L35 748M49-12L135 73L389 73L431 30L389-12L49-12M384 750L79 750L140 689L384 689L414 720L384 750M384 405L140 405L110 375L140 345L384 345L414 375L384 405M77 343L47 312L47 32L108 93L108 312L77 343M108 657L47 718L47 438L77 407L108 438L108 657M140 61L79 0L384 0L414 30L384 61L140 61Z"  horiz-adv-x="433" vert-adv-y="1000"  />

      
      <glyph glyph-name="uni66" unicode="&#x66;" d="M49 762L389 762L431 720L389 677L135 677L49 762M135 417L389 417L431 375L389 333L135 333L93 375L135 417M35 317L77 361L120 317L120 32L77-10L35 32L35 317M35 748L120 662L120 433L77 389L35 433L35 748M384 750L79 750L140 689L384 689L414 720L384 750M384 405L140 405L110 375L140 345L384 345L414 375L384 405M77 343L47 312L47 37L77 7L108 37L108 312L77 343M108 657L47 718L47 438L77 407L108 438L108 657Z"  horiz-adv-x="433" vert-adv-y="1000"  />

      
      <glyph glyph-name="uni67" unicode="&#x67;" d="M135 762L380 762L423 720L380 677L135 677L92 720L135 762M380 333L272 333L230 375L272 417L466 417L380 333M35 662L77 705L121 662L121 425L80 384L77 386L75 384L35 425L35 662M71 375L77 369L75 366L66 375L75 384L77 381L71 375M80 366L77 369L83 375L77 381L80 384L89 375L80 366M77 364L80 366L121 325L121 88L77 45L35 88L35 325L75 366L77 364M135 73L380 73L423 30L380-12L135-12L92 30L135 73M394 317L480 403L480 88L438 45L394 88L394 317M480 575L438 533L394 575L394 662L438 705L480 662L480 575M375 750L140 750L109 720L140 689L375 689L406 720L375 750M278 345L375 345L436 405L278 405L248 375L278 345M77 687L47 657L47 430L77 399L108 430L108 657L77 687M47 320L47 93L77 63L108 93L108 320L77 351L47 320M375 61L140 61L109 30L140 0L375 0L406 30L375 61M468 373L407 312L407 93L438 63L468 93L468 373M438 551L468 581L468 657L438 687L407 657L407 581L438 551Z"  horiz-adv-x="515" vert-adv-y="1000"  />

      
      <glyph glyph-name="uni68" unicode="&#x68;" d="M135 417L380 417L423 375L380 333L135 333L92 375L135 417M35 317L77 361L121 317L121 32L77-10L35 32L35 317M35 433L35 718L77 760L121 718L121 433L77 389L35 433M394 317L438 361L480 317L480 32L438-10L394 32L394 317M394 433L394 718L438 760L480 718L480 433L438 389L394 433M375 405L140 405L109 375L140 345L375 345L406 375L375 405M77 343L47 312L47 37L77 7L108 37L108 312L77 343M47 713L47 438L77 407L108 438L108 713L77 743L47 713M438 343L407 312L407 37L438 7L468 37L468 312L438 343M407 713L407 438L438 407L468 438L468 713L438 743L407 713Z"  horiz-adv-x="515" vert-adv-y="1000"  />

      
      <glyph glyph-name="uni69" unicode="&#x69;" d="M215 662L257 705L299 663L299 425L259 384L257 386L255 384L215 425L215 662M251 375L257 369L255 366L246 375L255 384L257 381L251 375M259 366L257 369L263 375L257 381L259 384L268 375L259 366M257 364L259 366L299 325L299 88L257 45L215 88L215 325L255 366L257 364M271 30L315 73L435 73L477 30L435-12L315-12L271 30M199-12L79-12L37 30L79 73L199 73L243 30L199-12M271 720L315 762L435 762L477 720L435 677L315 677L271 720M199 677L79 677L37 720L79 762L199 762L243 720L199 677M257 687L227 657L227 430L257 399L287 430L287 658L257 687M227 320L227 93L257 63L287 93L287 320L257 351L227 320M320 61L289 30L320 0L430 0L459 30L430 61L320 61M84 0L194 0L225 30L194 61L84 61L55 30L84 0M320 750L289 720L320 689L430 689L459 720L430 750L320 750M84 689L194 689L225 720L194 750L84 750L55 720L84 689Z"  horiz-adv-x="514" vert-adv-y="1000"  />

      
      <glyph glyph-name="uni6a" unicode="&#x6a;" d="M35 317L77 361L121 317L121 88L77 45L35 88L35 317M135 73L380 73L423 30L380-12L135-12L92 30L135 73M394 433L394 718L438 760L480 718L480 433L438 389L394 433M394 317L438 361L480 317L480 88L438 45L394 88L394 317M77 343L47 312L47 93L77 63L108 93L108 312L77 343M375 61L140 61L109 30L140 0L375 0L406 30L375 61M407 713L407 438L438 407L468 438L468 713L438 743L407 713M438 343L407 312L407 93L438 63L468 93L468 312L438 343Z"  horiz-adv-x="515" vert-adv-y="1000"  />

      
      <glyph glyph-name="uni6b" unicode="&#x6b;" d="M135 417L380 417L423 375L380 333L135 333L92 375L135 417M35 317L77 361L121 317L121 32L77-10L35 32L35 317M35 433L35 718L77 760L121 718L121 433L77 389L35 433M394 317L438 361L480 317L480 32L438-10L394 32L394 317M377 762L434 762L434 706L197 439L141 439L141 495L377 762M375 405L140 405L109 375L140 345L375 345L406 375L375 405M77 343L47 312L47 37L77 7L108 37L108 312L77 343M47 713L47 438L77 407L108 438L108 713L77 743L47 713M438 343L407 312L407 37L438 7L468 37L468 312L438 343M421 750L382 750L154 490L154 451L192 451L421 711L421 750Z"  horiz-adv-x="515" vert-adv-y="1000"  />

      
      <glyph glyph-name="uni6c" unicode="&#x6c;" d="M49-12L135 73L386 73L428 30L386-12L49-12M77 364L79 366L120 325L120 88L35 2L35 325L75 366L77 364M71 375L77 369L75 366L66 375L75 384L77 381L71 375M120 425L79 384L77 386L75 384L35 425L35 718L77 760L120 718L120 425M79 366L77 369L83 375L77 381L79 384L88 375L79 366M140 61L79 0L381 0L411 30L381 61L140 61M47 320L47 32L108 93L108 320L77 351L47 320M77 399L108 430L108 713L77 743L47 713L47 430L77 399Z"  horiz-adv-x="418" vert-adv-y="1000"  />

      
      <glyph glyph-name="uni6d" unicode="&#x6d;" d="M121 425L80 384L77 386L75 384L35 425L35 718L77 760L121 718L121 425M71 375L77 369L75 366L66 375L75 384L77 381L71 375M80 366L77 369L83 375L77 381L80 384L89 375L80 366M77 364L80 366L121 325L121 32L77-10L35 32L35 325L75 366L77 364M339 518L339 387L141 658L141 716L197 716L339 518M615 375L621 369L618 366L609 375L618 384L621 381L615 375M623 366L621 369L627 375L621 381L623 384L632 375L623 366M621 364L623 366L663 325L663 32L621-10L577 32L577 325L618 366L621 364M577 425L577 718L621 760L663 718L663 425L623 384L621 386L618 384L577 425M359 518L501 716L557 716L557 658L359 387L359 518M77 399L108 430L108 713L77 743L47 713L47 430L77 399M47 320L47 37L77 7L108 37L108 320L77 351L47 320M326 426L326 513L191 704L154 704L154 662L326 426M590 320L590 37L621 7L651 37L651 320L621 351L590 320M590 713L590 430L621 399L651 430L651 713L621 743L590 713M507 704L372 513L372 426L544 662L544 704L507 704Z"  horiz-adv-x="698" vert-adv-y="1000"  />

      
      <glyph glyph-name="uni6e" unicode="&#x6e;" d="M394 718L438 760L480 718L480 425L440 384L438 386L435 384L394 425L394 718M432 375L438 369L435 366L426 375L435 384L438 381L432 375M440 366L438 369L444 375L438 381L440 384L449 375L440 366M438 364L440 366L480 325L480 32L438-10L394 32L394 325L435 366L438 364M121 425L80 384L77 386L75 384L35 425L35 718L77 760L121 718L121 425M71 375L77 369L75 366L66 375L75 384L77 381L71 375M80 366L77 369L83 375L77 381L80 384L89 375L80 366M77 364L80 366L121 325L121 32L77-10L35 32L35 325L75 366L77 364M374 427L318 427L141 658L141 716L197 716L374 483L374 427M438 743L407 713L407 430L438 399L468 430L468 713L438 743M407 320L407 37L438 7L468 37L468 320L438 351L407 320M77 399L108 430L108 713L77 743L47 713L47 430L77 399M47 320L47 37L77 7L108 37L108 320L77 351L47 320M324 439L361 439L361 479L191 704L154 704L154 662L324 439Z"  horiz-adv-x="515" vert-adv-y="1000"  />

      
      <glyph glyph-name="uni6f" unicode="&#x6f;" d="M135 762L380 762L423 720L380 677L135 677L92 720L135 762M135 73L380 73L423 30L380-12L134-12L92 30L135 73M438 364L440 366L480 325L480 88L438 45L394 88L394 325L435 366L438 364M432 375L438 369L435 366L426 375L435 383L438 381L432 375M480 425L440 384L438 386L435 383L394 421L394 662L438 705L480 662L480 425M440 366L438 369L444 375L438 381L440 384L449 375L440 366M77 364L80 366L121 325L121 88L77 45L35 88L35 325L75 366L77 364M71 375L77 369L75 366L66 375L75 384L77 381L71 375M121 425L80 384L77 386L75 384L35 425L35 662L77 705L121 662L121 425M80 366L77 369L83 375L77 381L80 384L89 375L80 366M375 750L140 750L109 720L140 689L375 689L406 720L375 750M375 61L140 61L109 30L139 0L375 0L406 30L375 61M438 351L407 320L407 93L438 63L468 93L468 320L438 351M438 399L468 430L468 657L438 687L407 657L407 427L438 399M77 351L47 320L47 93L77 63L108 93L108 320L77 351M77 399L108 430L108 657L77 687L47 657L47 430L77 399Z"  horiz-adv-x="515" vert-adv-y="1000"  />

      
      <glyph glyph-name="uni70" unicode="&#x70;" d="M49 762L388 762L431 720L388 677L135 677L49 762M135 417L388 417L431 375L388 333L135 333L92 375L135 417M35 317L77 361L121 317L121 32L77-10L35 32L35 317M35 748L121 662L121 433L77 389L35 433L35 748M488 433L446 389L403 433L403 662L446 705L488 662L488 433M383 750L79 750L140 689L383 689L414 720L383 750M383 405L140 405L109 375L140 345L383 345L414 375L383 405M77 343L47 312L47 37L77 7L108 37L108 312L77 343M108 657L47 718L47 438L77 407L108 438L108 657M446 407L476 438L476 657L446 687L415 657L415 438L446 407Z"  horiz-adv-x="523" vert-adv-y="1000"  />

      
      <glyph glyph-name="uni71" unicode="&#x71;" d="M135 766L380 766L423 724L380 681L135 681L92 724L135 766M244 34L200-8L134-8L92 34L135 77L200 77L244 34M316-8L272 34L316 77L380 77L423 34L380-8L316-8M438 368L440 370L480 329L480 92L438 49L394 92L394 329L435 370L438 368M432 379L438 373L435 370L426 379L435 387L438 385L432 379M480 428L440 388L438 390L435 387L394 425L394 666L438 709L480 666L480 428M440 370L438 373L444 379L438 385L440 388L449 379L440 370M77 368L80 370L121 329L121 92L77 49L35 92L35 329L75 370L77 368M71 379L77 373L75 370L66 379L75 388L77 385L71 379M121 428L80 388L77 390L75 388L35 428L35 666L77 709L121 666L121 428M80 370L77 373L83 379L77 385L80 388L89 379L80 370M300-23L300-93L258-135L216-93L216-23L258 19L300-23M300 92L258 49L216 92L216 162L258 204L300 162L300 92M272-151L316-108L380-108L423-151L380-193L316-193L272-151M375 754L140 754L109 724L140 693L375 693L406 724L375 754M195 4L226 34L195 65L140 65L109 34L139 4L195 4M290 34L321 4L375 4L406 34L375 65L321 65L290 34M438 355L407 324L407 97L438 67L468 97L468 324L438 355M438 403L468 433L468 661L438 691L407 661L407 431L438 403M77 355L47 324L47 97L77 67L108 97L108 324L77 355M77 403L108 433L108 661L77 691L47 661L47 433L77 403M288-88L288-28L258 2L228-28L228-88L258-118L288-88M258 67L288 97L288 157L258 187L228 157L228 97L258 67M321-120L290-151L321-181L375-181L406-151L375-120L321-120Z"  horiz-adv-x="515" vert-adv-y="1000"  />

      
      <glyph glyph-name="uni72" unicode="&#x72;" d="M135 333L92 375L135 417L380 417L423 375L380 333L135 333M35 433L35 748L121 662L121 433L77 389L35 433M35 317L77 361L121 317L121 32L77-10L35 32L35 317M394 433L394 662L438 705L480 662L480 433L438 389L394 433M197 311L465 44L465-12L409-12L141 255L141 311L197 311M49 762L380 762L423 720L380 677L135 677L49 762M109 375L140 345L375 345L406 375L375 405L140 405L109 375M47 718L47 438L77 407L108 438L108 657L47 718M77 343L47 312L47 37L77 7L108 37L108 312L77 343M407 657L407 438L438 407L468 438L468 657L438 687L407 657M452 39L192 299L154 299L154 260L414 0L452 0L452 39M375 750L79 750L140 689L375 689L406 720L375 750Z"  horiz-adv-x="515" vert-adv-y="1000"  />

      
      <glyph glyph-name="uni73" unicode="&#x73;" d="M135 762L380 762L423 720L380 677L135 677L92 720L135 762M135 417L380 417L423 375L380 333L135 333L92 375L135 417M135 73L380 73L423 30L380-12L135-12L92 30L135 73M35 662L77 705L121 662L121 433L77 389L35 433L35 662M394 317L438 361L480 317L480 88L438 45L394 88L394 317M35 88L35 158L77 200L121 158L121 88L77 45L35 88M394 592L394 662L438 705L480 662L480 592L438 550L394 592M375 750L140 750L109 720L140 689L375 689L406 720L375 750M375 405L140 405L109 375L140 345L375 345L406 375L375 405M375 61L140 61L109 30L140 0L375 0L406 30L375 61M77 687L47 657L47 438L77 407L108 438L108 657L77 687M438 343L407 312L407 93L438 63L468 93L468 312L438 343M47 153L47 93L77 63L108 93L108 153L77 183L47 153M407 657L407 597L438 567L468 597L468 657L438 687L407 657Z"  horiz-adv-x="515" vert-adv-y="1000"  />

      
      <glyph glyph-name="uni74" unicode="&#x74;" d="M232 662L274 705L316 663L316 425L276 384L274 386L272 384L232 425L232 662M268 375L274 369L272 366L263 375L272 384L274 381L268 375M276 366L274 369L280 375L274 381L276 384L285 375L276 366M274 364L276 366L316 325L316 32L274-10L232 32L232 325L272 366L274 364M288 720L332 762L515 762L558 720L515 677L332 677L288 720M216 677L33 677L-10 720L33 762L216 762L260 720L216 677M274 687L244 657L244 430L274 399L304 430L304 658L274 687M244 320L244 37L274 7L304 37L304 320L274 351L244 320M337 750L306 720L337 689L510 689L541 720L510 750L337 750M38 689L211 689L242 720L211 750L38 750L7 720L38 689Z"  horiz-adv-x="548" vert-adv-y="1000"  />

      
      <glyph glyph-name="uni75" unicode="&#x75;" d="M135 73L380 73L423 30L380-12L134-12L92 30L135 73M438 364L440 366L480 325L480 88L438 45L394 88L394 325L435 366L438 364M432 375L438 369L435 366L426 375L435 384L438 381L432 375M480 425L440 384L438 386L435 384L394 422L394 718L438 760L480 718L480 425M440 366L438 369L444 375L438 381L440 384L449 375L440 366M77 364L80 366L121 325L121 88L77 45L35 88L35 325L75 366L77 364M71 375L77 369L75 366L66 375L75 384L77 381L71 375M121 425L80 384L77 386L75 384L35 425L35 718L77 760L121 718L121 425M80 366L77 369L83 375L77 381L80 384L89 375L80 366M375 61L140 61L109 30L139 0L375 0L406 30L375 61M438 351L407 320L407 93L438 63L468 93L468 320L438 351M438 399L468 430L468 713L438 743L407 713L407 427L438 399M77 351L47 320L47 93L77 63L108 93L108 320L77 351M77 399L108 430L108 713L77 743L47 713L47 430L77 399Z"  horiz-adv-x="515" vert-adv-y="1000"  />

      
      <glyph glyph-name="uni76" unicode="&#x76;" d="M78 364L80 366L121 325L121 32L78-10L35 32L35 325L75 366L78 364M71 375L78 369L75 366L66 375L75 384L78 381L71 375M121 425L80 384L78 386L75 384L35 425L35 718L78 760L121 718L121 425M80 366L78 369L84 375L78 381L80 384L89 375L80 366M369 718L413 760L455 718L455 425L412 381L369 425L369 718M400 312L141 53L141 173L365 399L400 365L400 312M78 351L48 320L48 37L78 7L109 37L109 320L78 351M78 399L109 430L109 713L78 743L48 713L48 430L78 399M413 743L381 713L381 430L412 399L442 430L442 713L413 743M153 83L388 317L388 360L365 381L153 167L153 83Z"  horiz-adv-x="490" vert-adv-y="1000"  />

      
      <glyph glyph-name="uni77" unicode="&#x77;" d="M77 364L80 366L121 325L121 32L77-10L35 32L35 325L75 366L77 364M71 375L77 369L75 366L66 375L75 384L77 381L71 375M121 425L80 384L77 386L75 384L35 425L35 718L77 760L121 718L121 425M80 366L77 369L83 375L77 381L80 384L89 375L80 366M339 232L197 34L141 34L141 92L339 363L339 232M621 364L623 366L663 325L663 32L621-10L577 32L577 325L618 366L621 364M615 375L621 369L618 366L609 375L618 384L621 381L615 375M663 425L623 384L621 386L618 384L577 425L577 718L621 760L663 718L663 425M623 366L621 369L627 375L621 381L623 384L632 375L623 366M359 232L359 363L557 92L557 34L501 34L359 232M108 37L108 320L77 351L47 320L47 37L77 7L108 37M77 399L108 430L108 713L77 743L47 713L47 430L77 399M191 46L326 237L326 324L154 88L154 46L191 46M621 351L590 320L590 37L621 7L651 37L651 320L621 351M621 399L651 430L651 713L621 743L590 713L590 430L621 399M372 324L372 237L507 46L544 46L544 88L372 324Z"  horiz-adv-x="698" vert-adv-y="1000"  />

      
      <glyph glyph-name="uni78" unicode="&#x78;" d="M35 49L207 367L265 367L265 304L94-12L35-12L35 49M284 446L455 762L514 762L514 701L342 385L284 385L284 446M284 304L284 367L342 367L514 49L514-12L455-12L284 304M35 701L35 762L94 762L265 446L265 385L207 385L35 701M214 354L48 45L48 0L87 0L252 307L252 354L214 354M462 750L297 443L297 398L335 398L501 705L501 750L462 750M297 354L297 307L462 0L501 0L501 45L335 354L297 354M48 750L48 705L214 398L252 398L252 443L87 750L48 750Z"  horiz-adv-x="549" vert-adv-y="1000"  />

      
      <glyph glyph-name="uni79" unicode="&#x79;" d="M135 417L380 417L423 375L380 333L135 333L92 375L135 417M380-12L79-12L37 30L79 73L380 73L423 30L380-12M394 433L394 718L438 760L480 718L480 433L438 389L394 433M35 433L35 718L77 760L121 718L121 433L77 389L35 433M394 317L438 361L480 317L480 88L438 45L394 88L394 317M375 405L140 405L109 375L140 345L375 345L406 375L375 405M84 0L375 0L406 30L375 61L84 61L55 30L84 0M407 713L407 438L438 407L468 438L468 713L438 743L407 713M47 713L47 438L77 407L108 438L108 713L77 743L47 713M438 343L407 312L407 93L438 63L468 93L468 312L438 343Z"  horiz-adv-x="515" vert-adv-y="1000"  />

      
      <glyph glyph-name="uni7a" unicode="&#x7a;" d="M46 762L440 762L483 720L440 677L46 677L3 720L46 762M46 73L440 73L483 30L440-12L46-12L3 30L46 73M239 379L241 372L237 371L234 383L246 384L247 380L239 379M242 368L241 372L249 373L247 380L251 381L254 369L242 368M238 367L242 368L254 315L109 93L48 93L48 155L184 363L237 371L238 367M234 438L378 657L438 657L438 596L303 388L251 381L250 385L246 384L234 438M435 750L51 750L21 720L51 689L435 689L465 720L435 750M435 61L51 61L21 30L51 0L435 0L465 30L435 61M191 351L60 151L60 105L103 105L241 317L232 357L191 351M385 645L247 436L256 394L296 400L426 600L426 645L385 645Z"  horiz-adv-x="486" vert-adv-y="1000"  />

      
      <glyph glyph-name="uni7b" unicode="&#x7b;" d="M218 677L174 720L218 762L283 762L326 720L283 677L218 677M118 88L118 317L160 361L202 317L202 88L160 45L118 88M118 433L118 662L160 705L202 662L202 433L160 389L118 433M218 73L283 73L326 30L283-12L218-12L174 30L218 73M2 375L45 417L102 417L145 375L102 333L45 333L2 375M192 720L223 689L278 689L309 720L278 750L223 750L192 720M130 312L130 93L160 63L190 93L190 312L160 343L130 312M130 657L130 438L160 407L190 438L190 657L160 687L130 657M278 61L223 61L192 30L223 0L278 0L309 30L278 61M50 405L19 375L50 345L97 345L128 375L97 405L50 405Z"  horiz-adv-x="328" vert-adv-y="1000"  />

      
      <glyph glyph-name="uni7c" unicode="&#x7c;" d="M77 364L79 366L119 325L119 32L77-10L35 32L35 325L75 366L77 364M71 375L77 369L75 366L66 375L75 384L77 381L71 375M119 425L79 384L77 386L75 384L35 425L35 718L77 760L119 718L119 425M79 366L77 369L83 375L77 381L79 384L88 375L79 366M77 351L47 320L47 37L77 7L107 37L107 320L77 351M77 399L107 430L107 713L77 743L47 713L47 430L77 399Z"  horiz-adv-x="154" vert-adv-y="1000"  />

      
      <glyph glyph-name="uni7d" unicode="&#x7d;" d="M110 677L45 677L2 720L45 762L110 762L154 720L110 677M210 88L168 45L126 88L126 317L168 361L210 317L210 88M210 433L168 389L126 433L126 662L168 705L210 662L210 433M110 73L154 30L110-12L45-12L2 30L45 73L110 73M326 375L283 333L226 333L183 375L226 417L283 417L326 375M50 689L105 689L136 720L105 750L50 750L19 720L50 689M168 63L198 93L198 312L168 343L138 312L138 93L168 63M168 407L198 438L198 657L168 687L138 657L138 438L168 407M136 30L105 61L50 61L19 30L50 0L105 0L136 30M278 345L309 375L278 405L231 405L200 375L231 345L278 345Z"  horiz-adv-x="328" vert-adv-y="1000"  />

      
      <glyph glyph-name="uni7e" unicode="&#x7e;" d="M398 341L398 281L337 281L209 409L209 469L270 469L398 341M189 409L60 281L0 281L0 341L128 469L189 469L189 409M419 341L548 469L608 469L608 409L480 281L419 281L419 341M386 293L386 336L265 457L221 457L221 414L342 293L386 293M55 293L177 414L177 457L134 457L13 336L13 293L55 293M553 457L431 336L431 293L474 293L595 414L595 457L553 457Z"  horiz-adv-x="608" vert-adv-y="1000"  />

      
      <glyph glyph-name="uni0402" unicode="&#x0402;" d="M135 762L466 762L380 677L135 677L92 720L135 762M135 417L380 417L423 375L380 333L135 333L92 375L135 417M35 317L77 361L121 317L121 32L77-10L35 32L35 317M394 662L480 748L480 433L438 389L394 433L394 662M35 662L77 705L121 662L121 433L77 389L35 433L35 662M394 317L438 361L480 317L480 32L438-10L394 32L394 317M436 750L140 750L109 720L140 689L375 689L436 750M375 405L140 405L109 375L140 345L375 345L406 375L375 405M77 343L47 312L47 37L77 7L108 37L108 312L77 343M468 718L407 657L407 438L438 407L468 438L468 718M77 687L47 657L47 438L77 407L108 438L108 657L77 687M438 343L407 312L407 37L438 7L468 37L468 312L438 343Z"  horiz-adv-x="515" vert-adv-y="1000"  />

      
      <glyph glyph-name="uni82" unicode="&#x82;" d="M119 42L35-44L35 106L78 148L119 106L119 42M47-14L107 47L107 101L78 131L47 101L47-14Z"  horiz-adv-x="154" vert-adv-y="1000"  />

      
      <glyph glyph-name="uni201A" unicode="&#x201A;" d="M119 42L35-44L35 106L78 148L119 106L119 42M47-14L107 47L107 101L78 131L47 101L47-14Z"  horiz-adv-x="154" vert-adv-y="1000"  />

      
      <glyph glyph-name="uni84" unicode="&#x84;" d="M292 42L206-44L206 106L251 148L292 106L292 42M121 42L35-44L35 106L78 148L121 106L121 42M219-14L280 47L280 101L251 131L219 101L219-14M47-14L108 47L108 101L78 131L47 101L47-14Z"  horiz-adv-x="327" vert-adv-y="1000"  />

      
      <glyph glyph-name="uni201E" unicode="&#x201E;" d="M292 42L206-44L206 106L251 148L292 106L292 42M121 42L35-44L35 106L78 148L121 106L121 42M219-14L280 47L280 101L251 131L219 101L219-14M47-14L108 47L108 101L78 131L47 101L47-14Z"  horiz-adv-x="327" vert-adv-y="1000"  />

      
      <glyph glyph-name="uni85" unicode="&#x85;" d="M77-37L35 6L35 64L77 107L120 64L120 6L77-37M265-37L223 6L223 64L265 107L307 64L307 6L265-37M452-35L409 8L409 66L452 109L494 66L494 8L452-35M47 11L77-20L108 11L108 59L77 90L47 59L47 11M235 11L265-20L295 11L295 59L265 90L235 59L235 11M421 13L452-18L482 13L482 61L452 92L421 61L421 13Z"  horiz-adv-x="529" vert-adv-y="1000"  />

      
      <glyph glyph-name="uni2026" unicode="&#x2026;" d="M77-37L35 6L35 64L77 107L120 64L120 6L77-37M265-37L223 6L223 64L265 107L307 64L307 6L265-37M452-35L409 8L409 66L452 109L494 66L494 8L452-35M47 11L77-20L108 11L108 59L77 90L47 59L47 11M235 11L265-20L295 11L295 59L265 90L235 59L235 11M421 13L452-18L482 13L482 61L452 92L421 61L421 13Z"  horiz-adv-x="529" vert-adv-y="1000"  />

      
      <glyph glyph-name="uni86" unicode="&#x86;" d="M263 378L307 420L453 420L496 378L453 335L307 335L263 378M191 335L45 335L2 378L45 420L191 420L235 378L191 335M207 320L249 363L291 320L291-90L249-133L207-90L207 320M207 720L249 763L291 720L291 435L249 392L207 435L207 720M312 408L281 378L312 347L447 347L478 378L447 408L312 408M51 347L186 347L217 378L186 408L51 408L20 378L51 347M249 345L219 315L219-85L249-116L279-85L279 315L249 345M249 746L219 715L219 440L249 410L279 440L279 715L249 746Z"  horiz-adv-x="498" vert-adv-y="1000"  />

      
      <glyph glyph-name="uni2020" unicode="&#x2020;" d="M263 378L307 420L453 420L496 378L453 335L307 335L263 378M191 335L45 335L2 378L45 420L191 420L235 378L191 335M207 320L249 363L291 320L291-90L249-133L207-90L207 320M207 720L249 763L291 720L291 435L249 392L207 435L207 720M312 408L281 378L312 347L447 347L478 378L447 408L312 408M51 347L186 347L217 378L186 408L51 408L20 378L51 347M249 345L219 315L219-85L249-116L279-85L279 315L249 345M249 746L219 715L219 440L249 410L279 440L279 715L249 746Z"  horiz-adv-x="498" vert-adv-y="1000"  />

      
      <glyph glyph-name="uni89" unicode="&#x89;" d="M97 86L34 86L34 147L558 668L616 668L616 604L97 86M397 73L516 73L559 30L516-12L397-12L355 30L397 73M297 255L339 298L382 255L382 88L339 45L297 88L297 255M395 355L516 355L559 312L516 270L397 270L355 312L395 355M530 255L574 298L616 255L616 88L574 45L530 86L530 255M738 73L857 73L899 30L857-12L738-12L694 30L738 73M637 255L680 298L722 255L722 88L680 45L637 88L637 255M735 355L857 355L899 312L857 270L738 270L694 312L735 355M871 255L913 298L957 255L957 88L913 45L871 86L871 255M134 480L254 480L297 438L254 395L134 395L92 438L134 480M34 662L78 705L120 662L120 495L78 452L34 495L34 662M132 762L254 762L297 720L254 677L134 677L92 720L132 762M269 662L311 705L355 662L355 495L311 452L269 493L269 662M47 98L92 98L603 610L603 656L563 656L47 142L47 98M510 61L402 61L372 30L402 0L510 0L541 30L510 61M339 280L309 250L309 93L339 63L370 93L370 250L339 280M510 343L400 343L372 312L402 282L510 282L541 312L510 343M574 280L543 250L543 91L574 63L603 93L603 250L574 280M851 61L743 61L712 30L743 0L851 0L881 30L851 61M680 280L649 250L649 93L680 63L710 93L710 250L680 280M851 343L740 343L712 312L743 282L851 282L881 312L851 343M913 280L883 250L883 91L913 63L944 93L944 250L913 280M249 468L140 468L110 438L140 407L249 407L279 438L249 468M78 687L47 657L47 500L78 470L108 500L108 657L78 687M249 750L138 750L110 720L140 689L249 689L279 720L249 750M311 687L281 657L281 498L311 470L342 500L342 657L311 687Z"  horiz-adv-x="991" vert-adv-y="1000"  />

      
      <glyph glyph-name="uni2030" unicode="&#x2030;" d="M97 86L34 86L34 147L558 668L616 668L616 604L97 86M397 73L516 73L559 30L516-12L397-12L355 30L397 73M297 255L339 298L382 255L382 88L339 45L297 88L297 255M395 355L516 355L559 312L516 270L397 270L355 312L395 355M530 255L574 298L616 255L616 88L574 45L530 86L530 255M738 73L857 73L899 30L857-12L738-12L694 30L738 73M637 255L680 298L722 255L722 88L680 45L637 88L637 255M735 355L857 355L899 312L857 270L738 270L694 312L735 355M871 255L913 298L957 255L957 88L913 45L871 86L871 255M134 480L254 480L297 438L254 395L134 395L92 438L134 480M34 662L78 705L120 662L120 495L78 452L34 495L34 662M132 762L254 762L297 720L254 677L134 677L92 720L132 762M269 662L311 705L355 662L355 495L311 452L269 493L269 662M47 98L92 98L603 610L603 656L563 656L47 142L47 98M510 61L402 61L372 30L402 0L510 0L541 30L510 61M339 280L309 250L309 93L339 63L370 93L370 250L339 280M510 343L400 343L372 312L402 282L510 282L541 312L510 343M574 280L543 250L543 91L574 63L603 93L603 250L574 280M851 61L743 61L712 30L743 0L851 0L881 30L851 61M680 280L649 250L649 93L680 63L710 93L710 250L680 280M851 343L740 343L712 312L743 282L851 282L881 312L851 343M913 280L883 250L883 91L913 63L944 93L944 250L913 280M249 468L140 468L110 438L140 407L249 407L279 438L249 468M78 687L47 657L47 500L78 470L108 500L108 657L78 687M249 750L138 750L110 720L140 689L249 689L279 720L249 750M311 687L281 657L281 498L311 470L342 500L342 657L311 687Z"  horiz-adv-x="991" vert-adv-y="1000"  />

      
      <glyph glyph-name="uni2039" unicode="&#x2039;" d="M162 177L34 305L34 366L94 366L222 238L222 177L162 177M94 385L34 385L34 446L162 574L222 574L222 513L94 385M46 310L167 189L210 189L210 232L89 353L46 353L46 310M46 398L89 398L210 519L210 562L167 562L46 441L46 398Z"  horiz-adv-x="256" vert-adv-y="1000"  />

      
      <glyph glyph-name="uni91" unicode="&#x91;" d="M36 658L120 744L120 594L77 552L36 594L36 658M108 714L48 653L48 599L77 569L108 599L108 714Z"  horiz-adv-x="156" vert-adv-y="1000"  />

      
      <glyph glyph-name="uni2018" unicode="&#x2018;" d="M36 658L120 744L120 594L77 552L36 594L36 658M108 714L48 653L48 599L77 569L108 599L108 714Z"  horiz-adv-x="156" vert-adv-y="1000"  />

      
      <glyph glyph-name="uni92" unicode="&#x92;" d="M119 642L35 556L35 706L78 748L119 706L119 642M47 586L107 647L107 701L78 731L47 701L47 586Z"  horiz-adv-x="154" vert-adv-y="1000"  />

      
      <glyph glyph-name="uni2019" unicode="&#x2019;" d="M119 642L35 556L35 706L78 748L119 706L119 642M47 586L107 647L107 701L78 731L47 701L47 586Z"  horiz-adv-x="154" vert-adv-y="1000"  />

      
      <glyph glyph-name="uni93" unicode="&#x93;" d="M35 658L121 744L121 594L76 552L35 594L35 658M206 658L292 744L292 594L249 552L206 594L206 658M108 714L47 653L47 599L76 569L108 599L108 714M280 714L219 653L219 599L249 569L280 599L280 714Z"  horiz-adv-x="327" vert-adv-y="1000"  />

      
      <glyph glyph-name="uni201C" unicode="&#x201C;" d="M35 658L121 744L121 594L76 552L35 594L35 658M206 658L292 744L292 594L249 552L206 594L206 658M108 714L47 653L47 599L76 569L108 599L108 714M280 714L219 653L219 599L249 569L280 599L280 714Z"  horiz-adv-x="327" vert-adv-y="1000"  />

      
      <glyph glyph-name="uni94" unicode="&#x94;" d="M292 642L206 556L206 706L251 748L292 706L292 642M121 642L35 556L35 706L78 748L121 706L121 642M219 586L280 647L280 701L251 731L219 701L219 586M47 586L108 647L108 701L78 731L47 701L47 586Z"  horiz-adv-x="327" vert-adv-y="1000"  />

      
      <glyph glyph-name="uni201D" unicode="&#x201D;" d="M292 642L206 556L206 706L251 748L292 706L292 642M121 642L35 556L35 706L78 748L121 706L121 642M219 586L280 647L280 701L251 731L219 701L219 586M47 586L108 647L108 701L78 731L47 701L47 586Z"  horiz-adv-x="327" vert-adv-y="1000"  />

      
      <glyph glyph-name="uni95" unicode="&#x95;" d="M226 240L184 196L142 240L142 510L184 554L226 510L226 240M248 260L248 490L334 404L334 346L248 260M120 260L34 346L34 404L120 490L120 260M184 214L214 245L214 505L184 536L154 505L154 245L184 214M260 460L260 290L321 351L321 399L260 460M47 351L108 290L108 460L47 399L47 351Z"  horiz-adv-x="368" vert-adv-y="1000"  />

      
      <glyph glyph-name="uni2022" unicode="&#x2022;" d="M226 240L184 196L142 240L142 510L184 554L226 510L226 240M248 260L248 490L334 404L334 346L248 260M120 260L34 346L34 404L120 490L120 260M184 214L214 245L214 505L184 536L154 505L154 245L184 214M260 460L260 290L321 351L321 399L260 460M47 351L108 290L108 460L47 399L47 351Z"  horiz-adv-x="368" vert-adv-y="1000"  />

      
      <glyph glyph-name="uni96" unicode="&#x96;" d="M33 417L469 417L512 375L469 333L33 333L-10 375L33 417M464 405L38 405L7 375L38 345L464 345L495 375L464 405Z"  horiz-adv-x="502" vert-adv-y="1000"  />

      
      <glyph glyph-name="uni2013" unicode="&#x2013;" d="M33 417L469 417L512 375L469 333L33 333L-10 375L33 417M464 405L38 405L7 375L38 345L464 345L495 375L464 405Z"  horiz-adv-x="502" vert-adv-y="1000"  />

      
      <glyph glyph-name="uni97" unicode="&#x97;" d="M32 417L1004 417L1046 375L1004 333L32 333L-10 375L32 417M998 405L38 405L8 375L38 345L998 345L1028 375L998 405Z"  horiz-adv-x="1036" vert-adv-y="1000"  />

      
      <glyph glyph-name="uni2014" unicode="&#x2014;" d="M32 417L1004 417L1046 375L1004 333L32 333L-10 375L32 417M998 405L38 405L8 375L38 345L998 345L1028 375L998 405Z"  horiz-adv-x="1036" vert-adv-y="1000"  />

      
      <glyph glyph-name="uni99" unicode="&#x99;" d="M175 563L181 569L163 587L163 700L181 719L200 700L200 587L181 569L187 563L181 557L200 538L200 397L181 379L163 397L163 538L181 557L175 563M191 729L210 748L297 748L317 729L297 711L210 711L191 729M153 711L66 711L48 729L66 748L153 748L171 729L153 711M388 563L394 569L376 587L376 727L394 746L414 727L414 587L394 569L400 563L394 557L414 538L414 397L394 379L376 397L376 538L394 557L388 563M520 631L520 575L428 699L428 725L452 725L520 631M639 397L639 538L657 557L651 563L657 569L639 587L639 727L657 746L676 727L676 587L657 569L663 563L657 557L676 538L676 397L657 379L639 397M534 631L601 725L625 725L625 699L534 575L534 631Z"  horiz-adv-x="722" vert-adv-y="1000"  />

      
      <glyph glyph-name="uni2122" unicode="&#x2122;" d="M175 563L181 569L163 587L163 700L181 719L200 700L200 587L181 569L187 563L181 557L200 538L200 397L181 379L163 397L163 538L181 557L175 563M191 729L210 748L297 748L317 729L297 711L210 711L191 729M153 711L66 711L48 729L66 748L153 748L171 729L153 711M388 563L394 569L376 587L376 727L394 746L414 727L414 587L394 569L400 563L394 557L414 538L414 397L394 379L376 397L376 538L394 557L388 563M520 631L520 575L428 699L428 725L452 725L520 631M639 397L639 538L657 557L651 563L657 569L639 587L639 727L657 746L676 727L676 587L657 569L663 563L657 557L676 538L676 397L657 379L639 397M534 631L601 725L625 725L625 699L534 575L534 631Z"  horiz-adv-x="722" vert-adv-y="1000"  />

      
      <glyph glyph-name="uni203A" unicode="&#x203A;" d="M94 177L34 177L34 238L162 366L222 366L222 305L94 177M162 385L34 513L34 574L94 574L222 446L222 385L162 385M46 189L89 189L210 310L210 353L167 353L46 232L46 189M46 519L167 398L210 398L210 441L89 562L46 562L46 519Z"  horiz-adv-x="256" vert-adv-y="1000"  />

      
      <glyph glyph-name="unia4" unicode="&#xa4;" d="M148 594L393 594L436 552L393 508L148 508L105 552L148 594M148 242L393 242L436 198L393 156L147 156L105 198L148 242M407 494L451 537L493 494L493 256L451 213L407 256L407 494M48 494L90 537L134 494L134 256L90 213L48 256L48 494M455 556L455 642L541 642L541 556L455 556M455 108L455 194L541 194L541 108L455 108M0 108L0 194L86 194L86 108L0 108M0 556L0 642L86 642L86 556L0 556M388 582L153 582L122 552L153 521L388 521L419 552L388 582M388 229L153 229L122 198L152 168L388 168L419 198L388 229M451 520L420 489L420 261L451 230L481 261L481 489L451 520M90 520L60 489L60 261L90 230L121 261L121 489L90 520M467 629L467 568L528 568L528 629L467 629M467 182L467 121L528 121L528 182L467 182M13 182L13 121L74 121L74 182L13 182M13 629L13 568L74 568L74 629L13 629Z"  horiz-adv-x="541" vert-adv-y="1000"  />

      
      <glyph glyph-name="unia6" unicode="&#xa6;" d="M35 471L35 718L77 760L119 718L119 471L77 429L35 471M35 279L77 321L119 279L119 32L77-10L35 32L35 279M47 713L47 476L77 446L107 476L107 713L77 743L47 713M77 304L47 274L47 37L77 7L107 37L107 274L77 304Z"  horiz-adv-x="154" vert-adv-y="1000"  />

      
      <glyph glyph-name="unia7" unicode="&#xa7;" d="M134 277L302 277L344 235L302 191L134 191L92 235L134 277M34 459L78 501L120 459L120 291L78 249L34 291L34 459M316 459L358 501L402 459L402 291L358 249L316 289L316 459M132 559L302 559L344 515L302 473L134 473L92 515L132 559M134 755L92 798L134 841L302 841L344 798L302 755L134 755M34 573L34 743L78 783L120 741L120 573L78 531L34 573M302-5L344-48L302-91L134-91L92-48L134-5L302-5M402 177L402 7L358-33L316 9L316 177L358 219L402 177M120 9L78-33L34 9L34 71L78 114L120 71L120 9M402 679L358 636L316 679L316 741L358 783L402 741L402 679M297 264L139 264L110 235L139 204L297 204L326 235L297 264M78 483L47 454L47 296L78 267L107 296L107 454L78 483M358 483L329 454L329 294L358 267L389 296L389 454L358 483M297 546L137 546L110 515L139 486L297 486L326 515L297 546M110 798L139 768L297 768L326 798L297 829L139 829L110 798M47 738L47 579L78 549L107 579L107 736L78 765L47 738M326-48L297-18L139-18L110-48L139-79L297-79L326-48M389 12L389 171L358 201L329 171L329 14L358-15L389 12M78-15L107 14L107 66L78 96L47 66L47 14L78-15M358 654L389 684L389 736L358 765L329 736L329 684L358 654Z"  horiz-adv-x="436" vert-adv-y="1000"  />

      
      <glyph glyph-name="unia8" unicode="&#xa8;" d="M49 760L389 760L431 717L389 675L135 675L49 760M135 416L389 416L431 372L389 330L135 330L93 372L135 416M35 315L77 358L120 315L120 85L35 0L35 315M35 745L120 659L120 430L77 388L35 430L35 745M49-15L135 71L389 71L431 28L389-15L49-15M77 827L120 870L181 870L225 827L181 784L120 784L77 827M237 827L279 870L341 870L385 827L341 784L279 784L237 827M384 747L79 747L140 687L384 687L414 717L384 747M384 403L140 403L110 372L140 342L384 342L414 372L384 403M77 340L47 310L47 30L108 90L108 310L77 340M108 654L47 715L47 435L77 405L108 435L108 654M140 58L79-3L384-3L414 28L384 58L140 58M126 858L95 827L126 797L176 797L207 827L176 858L126 858M285 858L255 827L285 797L336 797L367 827L336 858L285 858Z"  horiz-adv-x="433" vert-adv-y="1000"  />

      
      <glyph glyph-name="uni0401" unicode="&#x0401;" d="M49 760L389 760L431 717L389 675L135 675L49 760M135 416L389 416L431 372L389 330L135 330L93 372L135 416M35 315L77 358L120 315L120 85L35 0L35 315M35 745L120 659L120 430L77 388L35 430L35 745M49-15L135 71L389 71L431 28L389-15L49-15M77 827L120 870L181 870L225 827L181 784L120 784L77 827M237 827L279 870L341 870L385 827L341 784L279 784L237 827M384 747L79 747L140 687L384 687L414 717L384 747M384 403L140 403L110 372L140 342L384 342L414 372L384 403M77 340L47 310L47 30L108 90L108 310L77 340M108 654L47 715L47 435L77 405L108 435L108 654M140 58L79-3L384-3L414 28L384 58L140 58M126 858L95 827L126 797L176 797L207 827L176 858L126 858M285 858L255 827L285 797L336 797L367 827L336 858L285 858Z"  horiz-adv-x="433" vert-adv-y="1000"  />

      
      <glyph glyph-name="unia9" unicode="&#xa9;" d="M143 750L380 750L422 709L380 667L143 667L102 709L143 750M143 83L380 83L422 41L380 0L142 0L102 41L143 83M129 423L87 381L93 375L87 369L129 327L129 97L87 56L46 97L46 327L87 369L81 375L87 381L46 423L46 653L87 694L129 653L129 423M713 750L754 709L713 667L476 667L434 709L476 750L713 750M713 83L754 41L714 0L476 0L434 41L476 83L713 83M810 423L769 381L775 375L769 369L810 327L810 97L769 56L727 97L727 327L769 369L763 375L769 381L727 423L727 653L769 694L810 653L810 423M370 557L487 557L506 538L487 520L370 520L351 538L370 557M335 372L341 378L323 396L323 509L341 528L360 509L360 396L341 378L347 372L341 366L360 347L360 233L341 214L323 233L323 347L341 366L335 372M370 223L487 223L506 204L487 186L370 186L351 204L370 223M516 293L535 275L535 233L516 214L497 233L497 275L516 293M535 509L535 468L516 449L497 468L497 509L516 528L535 509Z"  horiz-adv-x="856" vert-adv-y="1000"  />

      
      <glyph glyph-name="uniab" unicode="&#xab;" d="M426 177L237 366L357 366L485 238L485 177L426 177M357 385L237 385L426 574L485 574L485 513L357 385M163 177L35 305L35 366L94 366L223 238L223 177L163 177M94 385L35 385L35 446L163 574L223 574L223 513L94 385M267 353L431 189L473 189L473 232L352 353L267 353M267 398L352 398L473 519L473 562L431 562L267 398M47 310L168 189L210 189L210 232L89 353L47 353L47 310M47 398L89 398L210 519L210 562L168 562L47 441L47 398Z"  horiz-adv-x="520" vert-adv-y="1000"  />

      
      <glyph glyph-name="uniac" unicode="&#xac;" d="M79 420L411 420L325 335L79 335L37 378L79 420M425 258L383 216L339 258L339 320L425 406L425 258M381 408L84 408L54 378L84 347L320 347L381 408M383 233L413 263L413 376L352 315L352 263L383 233Z"  horiz-adv-x="460" vert-adv-y="1000"  />

      
      <glyph glyph-name="uniae" unicode="&#xae;" d="M143 750L380 750L422 709L380 667L143 667L102 709L143 750M143 83L380 83L422 41L380 0L142 0L102 41L143 83M129 423L87 381L93 375L87 369L129 327L129 97L87 56L46 97L46 327L87 369L81 375L87 381L46 423L46 653L87 694L129 653L129 423M713 750L754 709L713 667L476 667L434 709L476 750L713 750M713 83L754 41L714 0L476 0L434 41L476 83L713 83M810 423L769 381L775 375L769 369L810 327L810 97L769 56L727 97L727 327L769 369L763 375L769 381L727 423L727 653L769 694L810 653L810 423M378 356L359 375L378 393L495 393L514 375L495 356L378 356M331 403L331 550L368 512L368 403L349 385L331 403M331 346L349 365L368 346L368 209L349 191L331 209L331 346M505 403L505 512L524 531L543 512L543 403L524 385L505 403M407 342L535 213L535 189L511 189L383 317L383 342L407 342M341 560L495 560L514 541L495 523L378 523L341 560Z"  horiz-adv-x="856" vert-adv-y="1000"  />

      
      <glyph glyph-name="unib0" unicode="&#xb0;" d="M34 653L77 695L120 653L120 521L77 479L34 521L34 653M132 753L254 753L296 710L254 668L134 668L92 710L132 753M268 653L311 695L354 653L354 521L311 479L268 521L268 653M134 506L254 506L296 464L254 421L134 421L92 464L134 506M77 678L46 648L46 526L77 496L107 526L107 648L77 678M249 741L137 741L109 710L139 680L249 680L279 710L249 741M311 678L281 648L281 526L311 496L342 526L342 648L311 678M249 494L139 494L109 464L139 433L249 433L279 464L249 494Z"  horiz-adv-x="388" vert-adv-y="1000"  />

      
      <glyph glyph-name="unib1" unicode="&#xb1;" d="M338 435L296 393L254 435L254 575L296 617L338 575L338 435M282 378L238 335L79 335L36 378L79 421L238 421L282 378M254 321L296 364L338 321L338 182L296 139L254 182L254 321M310 378L354 421L513 421L556 378L513 335L354 335L310 378M79 77L513 77L556 33L513-9L79-9L36 33L79 77M296 410L326 440L326 569L296 599L266 569L266 440L296 410M233 347L264 378L233 408L84 408L53 378L84 347L233 347M296 346L266 315L266 187L296 156L326 187L326 315L296 346M359 408L328 378L359 347L508 347L539 378L508 408L359 408M508 64L84 64L53 33L84 3L508 3L539 33L508 64Z"  horiz-adv-x="592" vert-adv-y="1000"  />

      
      <glyph glyph-name="unib5" unicode="&#xb5;" d="M134 87L380 87L422 44L380 1L133 1L92 44L134 87M394 340L437 382L480 340L480 101L437 59L394 101L394 340M34 340L76 382L120 340L120 101L76 59L34 101L34 340M451 44L495 87L559 87L602 44L559 1L495 1L451 44M120-14L120-205L76-247L34-205L34-14L76 30L120-14M375 74L139 74L109 44L138 13L375 13L405 44L375 74M437 365L407 335L407 106L437 76L468 106L468 335L437 365M76 365L46 335L46 106L76 76L107 106L107 335L76 365M500 74L469 44L500 13L554 13L585 44L554 74L500 74M107-200L107-19L76 12L46-19L46-200L76-229L107-200Z"  horiz-adv-x="592" vert-adv-y="1000"  />

      
      <glyph glyph-name="unib6" unicode="&#xb6;" d="M631 762L718 762L762 720L718 677L631 677L589 720L631 762M575 364L577 366L617 325L617 32L575-10L531 32L531 325L572 366L575 364M568 375L575 369L572 366L563 375L572 384L575 381L568 375M617 425L577 384L575 386L572 384L531 425L531 662L575 705L617 662L617 425M577 366L575 369L581 375L575 381L577 384L586 375L577 366M517 762L560 720L517 677L363 677L319 720L363 762L517 762M263 32L263 317L305 361L347 317L347 32L305-10L263 32M347 662L347 433L305 389L263 433L263 662L305 705L347 662M247 333L135 333L92 375L135 417L247 417L291 375L247 333M247 677L135 677L92 720L135 762L247 762L291 720L247 677M34 662L78 705L120 662L120 433L78 389L34 433L34 662M713 750L637 750L607 720L637 689L713 689L744 720L713 750M544 320L544 37L575 7L605 37L605 320L575 351L544 320M575 399L605 430L605 657L575 687L544 657L544 430L575 399M543 720L512 750L368 750L337 720L368 689L512 689L543 720M275 312L275 37L305 7L335 37L335 312L305 343L275 312M335 438L335 657L305 687L275 657L275 438L305 407L335 438M140 345L242 345L273 375L242 405L140 405L110 375L140 345M140 689L242 689L273 720L242 750L140 750L110 720L140 689M78 687L47 657L47 438L78 407L108 438L108 657L78 687Z"  horiz-adv-x="798" vert-adv-y="1000"  />

      
      <glyph glyph-name="unib7" unicode="&#xb7;" d="M77 303L35 346L35 404L77 447L119 404L119 346L77 303M47 351L77 320L107 351L107 399L77 430L47 399L47 351Z"  horiz-adv-x="154" vert-adv-y="1000"  />

      
      <glyph glyph-name="uni2219" unicode="&#x2219;" d="M77 303L35 346L35 404L77 447L119 404L119 346L77 303M47 351L77 320L107 351L107 399L77 430L47 399L47 351Z"  horiz-adv-x="154" vert-adv-y="1000"  />

      
      <glyph glyph-name="unib8" unicode="&#xb8;" d="M49 760L389 760L431 717L389 675L135 675L49 760M135 416L389 416L431 372L389 330L135 330L93 372L135 416M35 315L77 358L120 315L120 85L35 0L35 315M35 745L120 659L120 430L77 388L35 430L35 745M49-15L135 71L389 71L431 28L389-15L49-15M77 827L120 870L181 870L225 827L181 784L120 784L77 827M237 827L279 870L341 870L385 827L341 784L279 784L237 827M384 747L79 747L140 687L384 687L414 717L384 747M384 403L140 403L110 372L140 342L384 342L414 372L384 403M77 340L47 310L47 30L108 90L108 310L77 340M108 654L47 715L47 435L77 405L108 435L108 654M140 58L79-3L384-3L414 28L384 58L140 58M126 858L95 827L126 797L176 797L207 827L176 858L126 858M285 858L255 827L285 797L336 797L367 827L336 858L285 858Z"  horiz-adv-x="433" vert-adv-y="1000"  />

      
      <glyph glyph-name="uni0451" unicode="&#x0451;" d="M49 760L389 760L431 717L389 675L135 675L49 760M135 416L389 416L431 372L389 330L135 330L93 372L135 416M35 315L77 358L120 315L120 85L35 0L35 315M35 745L120 659L120 430L77 388L35 430L35 745M49-15L135 71L389 71L431 28L389-15L49-15M77 827L120 870L181 870L225 827L181 784L120 784L77 827M237 827L279 870L341 870L385 827L341 784L279 784L237 827M384 747L79 747L140 687L384 687L414 717L384 747M384 403L140 403L110 372L140 342L384 342L414 372L384 403M77 340L47 310L47 30L108 90L108 310L77 340M108 654L47 715L47 435L77 405L108 435L108 654M140 58L79-3L384-3L414 28L384 58L140 58M126 858L95 827L126 797L176 797L207 827L176 858L126 858M285 858L255 827L285 797L336 797L367 827L336 858L285 858Z"  horiz-adv-x="433" vert-adv-y="1000"  />

      
      <glyph glyph-name="unib9" unicode="&#xb9;" d="M396 718L438 760L482 718L482 425L441 384L438 386L436 384L396 425L396 718M432 375L438 369L436 366L427 375L436 384L438 381L432 375M441 366L438 369L445 375L438 381L441 384L450 375L441 366M438 364L441 366L482 325L482 32L438-10L396 32L396 325L436 366L438 364M121 425L80 384L78 386L75 384L36 425L36 718L78 760L121 718L121 425M72 375L78 369L75 366L66 375L75 384L78 381L72 375M80 366L78 369L84 375L78 381L80 384L89 375L80 366M78 364L80 366L121 325L121 32L78-10L36 32L36 325L75 366L78 364M374 427L319 427L142 658L142 716L199 716L374 483L374 427M562 430L606 472L648 430L648 320L606 278L562 318L562 430M663 530L715 530L758 487L715 444L663 444L620 487L663 530M663 306L715 306L758 263L715 220L663 220L620 263L663 306M730 430L773 472L816 430L816 320L773 278L730 318L730 430M564 122L608 165L771 165L813 122L771 80L608 80L564 122M438 743L408 713L408 430L438 399L469 430L469 713L438 743M408 320L408 37L438 7L469 37L469 320L438 351L408 320M78 399L109 430L109 713L78 743L48 713L48 430L78 399M48 320L48 37L78 7L109 37L109 320L78 351L48 320M325 439L362 439L362 479L193 704L154 704L154 662L325 439M606 455L575 425L575 323L606 295L636 325L636 425L606 455M710 518L668 518L638 487L668 457L710 457L740 487L710 518M710 293L668 293L638 263L668 232L710 232L740 263L710 293M773 455L742 425L742 323L773 295L803 325L803 425L773 455M613 153L582 122L613 92L766 92L796 122L766 153L613 153Z"  horiz-adv-x="851" vert-adv-y="1000"  />

      
      <glyph glyph-name="uni2116" unicode="&#x2116;" d="M396 718L438 760L482 718L482 425L441 384L438 386L436 384L396 425L396 718M432 375L438 369L436 366L427 375L436 384L438 381L432 375M441 366L438 369L445 375L438 381L441 384L450 375L441 366M438 364L441 366L482 325L482 32L438-10L396 32L396 325L436 366L438 364M121 425L80 384L78 386L75 384L36 425L36 718L78 760L121 718L121 425M72 375L78 369L75 366L66 375L75 384L78 381L72 375M80 366L78 369L84 375L78 381L80 384L89 375L80 366M78 364L80 366L121 325L121 32L78-10L36 32L36 325L75 366L78 364M374 427L319 427L142 658L142 716L199 716L374 483L374 427M562 430L606 472L648 430L648 320L606 278L562 318L562 430M663 530L715 530L758 487L715 444L663 444L620 487L663 530M663 306L715 306L758 263L715 220L663 220L620 263L663 306M730 430L773 472L816 430L816 320L773 278L730 318L730 430M564 122L608 165L771 165L813 122L771 80L608 80L564 122M438 743L408 713L408 430L438 399L469 430L469 713L438 743M408 320L408 37L438 7L469 37L469 320L438 351L408 320M78 399L109 430L109 713L78 743L48 713L48 430L78 399M48 320L48 37L78 7L109 37L109 320L78 351L48 320M325 439L362 439L362 479L193 704L154 704L154 662L325 439M606 455L575 425L575 323L606 295L636 325L636 425L606 455M710 518L668 518L638 487L668 457L710 457L740 487L710 518M710 293L668 293L638 263L668 232L710 232L740 263L710 293M773 455L742 425L742 323L773 295L803 325L803 425L773 455M613 153L582 122L613 92L766 92L796 122L766 153L613 153Z"  horiz-adv-x="851" vert-adv-y="1000"  />

      
      <glyph glyph-name="unibb" unicode="&#xbb;" d="M94 177L35 177L35 238L163 366L283 366L94 177M163 385L35 513L35 574L94 574L283 385L163 385M357 177L297 177L297 238L426 366L485 366L485 305L357 177M426 385L297 513L297 574L357 574L485 446L485 385L426 385M47 189L89 189L253 353L168 353L47 232L47 189M47 519L168 398L253 398L89 562L47 562L47 519M310 189L352 189L473 310L473 353L431 353L310 232L310 189M310 519L431 398L473 398L473 441L352 562L310 562L310 519Z"  horiz-adv-x="520" vert-adv-y="1000"  />

      
      <glyph glyph-name="unic0" unicode="&#xc0;" d="M135 762L466 762L380 677L135 677L92 720L135 762M135 417L380 417L423 375L380 333L135 333L92 375L135 417M35 317L77 361L121 317L121 32L77-10L35 32L35 317M394 662L480 748L480 433L438 389L394 433L394 662M35 662L77 705L121 662L121 433L77 389L35 433L35 662M394 317L438 361L480 317L480 32L438-10L394 32L394 317M436 750L140 750L109 720L140 689L375 689L436 750M375 405L140 405L109 375L140 345L375 345L406 375L375 405M77 343L47 312L47 37L77 7L108 37L108 312L77 343M468 718L407 657L407 438L438 407L468 438L468 718M77 687L47 657L47 438L77 407L108 438L108 657L77 687M438 343L407 312L407 37L438 7L468 37L468 312L438 343Z"  horiz-adv-x="515" vert-adv-y="1000"  />

      
      <glyph glyph-name="uni0410" unicode="&#x0410;" d="M135 762L466 762L380 677L135 677L92 720L135 762M135 417L380 417L423 375L380 333L135 333L92 375L135 417M35 317L77 361L121 317L121 32L77-10L35 32L35 317M394 662L480 748L480 433L438 389L394 433L394 662M35 662L77 705L121 662L121 433L77 389L35 433L35 662M394 317L438 361L480 317L480 32L438-10L394 32L394 317M436 750L140 750L109 720L140 689L375 689L436 750M375 405L140 405L109 375L140 345L375 345L406 375L375 405M77 343L47 312L47 37L77 7L108 37L108 312L77 343M468 718L407 657L407 438L438 407L468 438L468 718M77 687L47 657L47 438L77 407L108 438L108 657L77 687M438 343L407 312L407 37L438 7L468 37L468 312L438 343Z"  horiz-adv-x="515" vert-adv-y="1000"  />

      
      <glyph glyph-name="unic1" unicode="&#xc1;" d="M49 762L436 762L478 720L436 677L135 677L49 762M135 417L380 417L423 375L380 333L135 333L92 375L135 417M35 317L77 361L121 317L121 88L35 2L35 317M135 73L380 73L423 30L380-12L49-12L135 73M35 748L121 662L121 433L77 389L35 433L35 748M394 317L438 361L480 317L480 88L438 45L394 88L394 317M431 750L79 750L140 689L431 689L461 720L431 750M375 405L140 405L109 375L140 345L375 345L406 375L375 405M77 343L47 312L47 32L108 93L108 312L77 343M375 61L140 61L79 0L375 0L406 30L375 61M108 657L47 718L47 438L77 407L108 438L108 657M438 343L407 312L407 93L438 63L468 93L468 312L438 343Z"  horiz-adv-x="515" vert-adv-y="1000"  />

      
      <glyph glyph-name="uni0411" unicode="&#x0411;" d="M49 762L436 762L478 720L436 677L135 677L49 762M135 417L380 417L423 375L380 333L135 333L92 375L135 417M35 317L77 361L121 317L121 88L35 2L35 317M135 73L380 73L423 30L380-12L49-12L135 73M35 748L121 662L121 433L77 389L35 433L35 748M394 317L438 361L480 317L480 88L438 45L394 88L394 317M431 750L79 750L140 689L431 689L461 720L431 750M375 405L140 405L109 375L140 345L375 345L406 375L375 405M77 343L47 312L47 32L108 93L108 312L77 343M375 61L140 61L79 0L375 0L406 30L375 61M108 657L47 718L47 438L77 407L108 438L108 657M438 343L407 312L407 93L438 63L468 93L468 312L438 343Z"  horiz-adv-x="515" vert-adv-y="1000"  />

      
      <glyph glyph-name="unic2" unicode="&#xc2;" d="M49 762L380 762L423 720L380 677L135 677L49 762M135 417L380 417L423 375L380 333L135 333L92 375L135 417M35 317L77 361L121 317L121 88L35 2L35 317M135 73L380 73L423 30L380-12L49-12L135 73M394 662L438 705L480 662L480 433L438 389L394 433L394 662M35 748L121 662L121 433L77 389L35 433L35 748M394 317L438 361L480 317L480 88L438 45L394 88L394 317M375 750L79 750L140 689L375 689L406 720L375 750M375 405L140 405L109 375L140 345L375 345L406 375L375 405M77 343L47 312L47 32L108 93L108 312L77 343M375 61L140 61L79 0L375 0L406 30L375 61M438 687L407 657L407 438L438 407L468 438L468 657L438 687M108 657L47 718L47 438L77 407L108 438L108 657M438 343L407 312L407 93L438 63L468 93L468 312L438 343Z"  horiz-adv-x="515" vert-adv-y="1000"  />

      
      <glyph glyph-name="uni0412" unicode="&#x0412;" d="M49 762L380 762L423 720L380 677L135 677L49 762M135 417L380 417L423 375L380 333L135 333L92 375L135 417M35 317L77 361L121 317L121 88L35 2L35 317M135 73L380 73L423 30L380-12L49-12L135 73M394 662L438 705L480 662L480 433L438 389L394 433L394 662M35 748L121 662L121 433L77 389L35 433L35 748M394 317L438 361L480 317L480 88L438 45L394 88L394 317M375 750L79 750L140 689L375 689L406 720L375 750M375 405L140 405L109 375L140 345L375 345L406 375L375 405M77 343L47 312L47 32L108 93L108 312L77 343M375 61L140 61L79 0L375 0L406 30L375 61M438 687L407 657L407 438L438 407L468 438L468 657L438 687M108 657L47 718L47 438L77 407L108 438L108 657M438 343L407 312L407 93L438 63L468 93L468 312L438 343Z"  horiz-adv-x="515" vert-adv-y="1000"  />

      
      <glyph glyph-name="unic3" unicode="&#xc3;" d="M49 762L389 762L431 720L389 677L135 677L49 762M35 748L120 662L120 425L79 384L77 386L75 384L35 425L35 748M71 375L77 369L75 366L66 375L75 384L77 381L71 375M79 366L77 369L83 375L77 381L79 384L88 375L79 366M77 364L79 366L120 325L120 32L77-10L35 32L35 325L75 366L77 364M384 750L79 750L140 689L384 689L414 720L384 750M108 657L47 718L47 430L77 399L108 430L108 657M47 320L47 37L77 7L108 37L108 320L77 351L47 320Z"  horiz-adv-x="421" vert-adv-y="1000"  />

      
      <glyph glyph-name="uni0413" unicode="&#x0413;" d="M49 762L389 762L431 720L389 677L135 677L49 762M35 748L120 662L120 425L79 384L77 386L75 384L35 425L35 748M71 375L77 369L75 366L66 375L75 384L77 381L71 375M79 366L77 369L83 375L77 381L79 384L88 375L79 366M77 364L79 366L120 325L120 32L77-10L35 32L35 325L75 366L77 364M384 750L79 750L140 689L384 689L414 720L384 750M108 657L47 718L47 430L77 399L108 430L108 657M47 320L47 37L77 7L108 37L108 320L77 351L47 320Z"  horiz-adv-x="421" vert-adv-y="1000"  />

      
      <glyph glyph-name="unic4" unicode="&#xc4;" d="M259 677L216 720L258 762L590 762L504 677L259 677M556 375L562 369L559 367L550 375L559 384L562 381L556 375M564 366L562 369L568 375L562 381L564 384L573 375L564 366M562 364L564 366L604 325L604 88L562 45L518 88L518 329L559 367L562 364M518 425L518 662L604 748L604 425L564 384L562 386L559 384L518 425M195 375L201 369L199 366L190 375L199 384L201 381L195 375M204 366L201 369L207 375L201 381L204 384L213 375L204 366M201 364L204 366L245 325L245 88L201 45L159 88L159 325L199 366L201 364M159 425L159 662L201 705L245 662L245 425L204 384L201 386L199 384L159 425M259 73L504 73L547 30L504-12L258-12L216 30L259 73M36 30L79 73L144 73L187 30L144-12L79-12L36 30M576 30L619 73L684 73L727 30L684-12L619-12L576 30M233 720L264 689L499 689L560 750L263 750L233 720M531 323L531 93L562 63L592 93L592 320L562 351L531 323M531 657L531 430L562 399L592 430L592 718L531 657M171 320L171 93L201 63L232 93L232 320L201 351L171 320M171 657L171 430L201 399L232 430L232 657L201 687L171 657M499 61L264 61L233 30L263 0L499 0L530 30L499 61M85 61L54 30L85 0L139 0L169 30L139 61L85 61M624 61L594 30L624 0L679 0L710 30L679 61L624 61Z"  horiz-adv-x="763" vert-adv-y="1000"  />

      
      <glyph glyph-name="uni0414" unicode="&#x0414;" d="M259 677L216 720L258 762L590 762L504 677L259 677M556 375L562 369L559 367L550 375L559 384L562 381L556 375M564 366L562 369L568 375L562 381L564 384L573 375L564 366M562 364L564 366L604 325L604 88L562 45L518 88L518 329L559 367L562 364M518 425L518 662L604 748L604 425L564 384L562 386L559 384L518 425M195 375L201 369L199 366L190 375L199 384L201 381L195 375M204 366L201 369L207 375L201 381L204 384L213 375L204 366M201 364L204 366L245 325L245 88L201 45L159 88L159 325L199 366L201 364M159 425L159 662L201 705L245 662L245 425L204 384L201 386L199 384L159 425M259 73L504 73L547 30L504-12L258-12L216 30L259 73M36 30L79 73L144 73L187 30L144-12L79-12L36 30M576 30L619 73L684 73L727 30L684-12L619-12L576 30M233 720L264 689L499 689L560 750L263 750L233 720M531 323L531 93L562 63L592 93L592 320L562 351L531 323M531 657L531 430L562 399L592 430L592 718L531 657M171 320L171 93L201 63L232 93L232 320L201 351L171 320M171 657L171 430L201 399L232 430L232 657L201 687L171 657M499 61L264 61L233 30L263 0L499 0L530 30L499 61M85 61L54 30L85 0L139 0L169 30L139 61L85 61M624 61L594 30L624 0L679 0L710 30L679 61L624 61Z"  horiz-adv-x="763" vert-adv-y="1000"  />

      
      <glyph glyph-name="unic5" unicode="&#xc5;" d="M49 762L389 762L431 720L389 677L135 677L49 762M135 417L389 417L431 375L389 333L135 333L93 375L135 417M35 317L77 361L120 317L120 88L35 2L35 317M35 748L120 662L120 433L77 389L35 433L35 748M49-12L135 73L389 73L431 30L389-12L49-12M384 750L79 750L140 689L384 689L414 720L384 750M384 405L140 405L110 375L140 345L384 345L414 375L384 405M77 343L47 312L47 32L108 93L108 312L77 343M108 657L47 718L47 438L77 407L108 438L108 657M140 61L79 0L384 0L414 30L384 61L140 61Z"  horiz-adv-x="433" vert-adv-y="1000"  />

      
      <glyph glyph-name="uni0415" unicode="&#x0415;" d="M49 762L389 762L431 720L389 677L135 677L49 762M135 417L389 417L431 375L389 333L135 333L93 375L135 417M35 317L77 361L120 317L120 88L35 2L35 317M35 748L120 662L120 433L77 389L35 433L35 748M49-12L135 73L389 73L431 30L389-12L49-12M384 750L79 750L140 689L384 689L414 720L384 750M384 405L140 405L110 375L140 345L384 345L414 375L384 405M77 343L47 312L47 32L108 93L108 312L77 343M108 657L47 718L47 438L77 407L108 438L108 657M140 61L79 0L384 0L414 30L384 61L140 61Z"  horiz-adv-x="433" vert-adv-y="1000"  />

      
      </font>
</defs>
</svg>
